<svg xmlns="http://www.w3.org/2000/svg" fill="none" viewBox="0 0 177 156">
  <path fill="#FF0" d="M0 0h96.1884v96.1884H0z"/>
  <path fill="#000" d="M146.789 138.67h26.152c.623 0 1.161.227 1.614.679.453.453.679.991.679 1.614v11.972c0 .623-.226 1.161-.679 1.614-.453.452-.991.679-1.614.679h-44.238c-.623 0-1.161-.227-1.614-.679-.452-.453-.679-.991-.679-1.614V98.0826c0-.6226.227-1.1604.679-1.6133.453-.4528.991-.6793 1.614-.6793h43.559c.623 0 1.161.2265 1.613.6793.453.4529.68.9907.68 1.6133v11.9724c0 .623-.227 1.161-.68 1.613-.452.453-.99.68-1.613.68h-25.473v5.349h23.605c.623 0 1.161.227 1.613.679.453.453.68.991.68 1.614v11.038c0 .623-.227 1.161-.68 1.613-.452.453-.99.68-1.613.68h-23.605v5.349ZM108.009 155.228H90.6871c-.6226 0-1.1604-.227-1.6133-.679-.4528-.453-.6793-.991-.6793-1.614V98.0826c0-.6226.2265-1.1604.6793-1.6133.4529-.4528.9907-.6793 1.6133-.6793h17.3219c.623 0 1.16.2265 1.613.6793.453.4529.68.9907.68 1.6133v54.8524c0 .623-.227 1.161-.68 1.614-.453.452-.99.679-1.613.679ZM21.0817 95.79h24.4544c8.2646 0 15.0575 2.0662 20.3786 6.199 5.3777 4.075 8.0666 9.793 8.0666 17.152v12.651c0 7.699-2.604 13.53-7.8118 17.492-5.2079 3.963-12.0574 5.944-20.5485 5.944H21.0817c-.6227 0-1.1605-.227-1.6133-.679-.4529-.453-.6793-.991-.6793-1.614V98.0826c0-.6226.2264-1.1604.6793-1.6133.4528-.4528.9906-.6793 1.6133-.6793Zm18.9351 16.558v26.322h5.5193c1.9246 0 3.453-.566 4.5852-1.698 1.1887-1.189 1.7831-2.915 1.7831-5.18v-12.651c0-4.529-2.1228-6.793-6.3683-6.793h-5.5193ZM159.34 16.8496h15.369c.623 0 1.161.2264 1.614.6793.452.4529.679.9906.679 1.6133v54.8526c0 .6227-.227 1.1604-.679 1.6133-.453.4529-.991.6793-1.614.6793h-13.416c-1.472 0-2.632-.651-3.481-1.953l-14.35-21.6523v21.3127c0 .6227-.227 1.1604-.679 1.6133-.453.4529-.991.6793-1.614.6793H125.8c-.622 0-1.16-.2264-1.613-.6793-.453-.4529-.679-.9906-.679-1.6133V19.1422c0-.6227.226-1.1604.679-1.6133.453-.4529.991-.6793 1.613-.6793h13.416c1.585 0 2.746.651 3.482 1.953l14.35 23.5203V19.1422c0-.6227.226-1.1604.679-1.6133.453-.4529.991-.6793 1.613-.6793ZM105.107 76.2874H87.7848c-.6227 0-1.1605-.2264-1.6133-.6793-.4529-.4529-.6793-.9906-.6793-1.6133V19.1422c0-.6227.2264-1.1604.6793-1.6133.4528-.4529.9906-.6793 1.6133-.6793h17.3222c.622 0 1.16.2264 1.613.6793.453.4529.679.9906.679 1.6133v54.8526c0 .6227-.226 1.1604-.679 1.6133-.453.4529-.991.6793-1.613.6793ZM21.0817 16.8496h25.3035c8.1514 0 14.5198 1.7548 19.105 5.2645s6.8778 8.6892 6.8778 15.5387c0 6.8495-2.2926 11.9159-6.8778 15.1991-4.5286 3.2833-10.8969 4.9249-19.105 4.9249H40.866v16.218c0 .6227-.2265 1.1604-.6793 1.6133-.4529.4529-.9907.6793-1.6133.6793H21.0817c-.6227 0-1.1605-.2264-1.6133-.6793-.4529-.4529-.6793-.9906-.6793-1.6133V19.1422c0-.6227.2264-1.1604.6793-1.6133.4528-.4529.9906-.6793 1.6133-.6793Zm19.3597 15.7935v9.4251h5.9438c1.0189 0 1.9246-.3679 2.7171-1.1038.7925-.7925 1.1888-1.8964 1.1888-3.3116 0-1.4152-.3114-2.6039-.934-3.5662-.6227-.9624-1.6133-1.4435-2.9719-1.4435h-5.9438Z"/>
</svg>