<svg xmlns="http://www.w3.org/2000/svg" fill="none" viewBox="0 0 515 376">
	<path
		fill="#1A1A10"
		d="M508.499 255.1c1.7-1.7 3.8-2.3 6.5-1.8 0 4.8-1.9 8.5-6.2 10.8-4 2.2-13.1 5.3-17.5 6.2-3.6.8-7.1.5-10.6.8-1.2.1-9.8-2.4-11.3-3-6.2-2.5-10.5-7.1-14.5-12.3-2.3-3-4.5-6-6.3-9.4-2.5-4.9-3.4-10.3-5.6-15.2-.5-1.1-.1-2.6-.1-4.1-1 .4-1.8.8-3 1.3 0 .7-.2 1.7 0 2.6.6 2.8-1.1 5.3-1 8.1.1 2.8.7 5.9-.1 8.5-1.5 4.7-1.3 9.5-.7 14.1.9 7.4.7 14.7.8 22.1.1 7.5-.7 15.1.2 22.5 1 8.2.1 16.5 1 24.6.4 3.5.8 7 .8 10.6.1 4.7-1.5 9-2.4 13.5-.2 1.2-.6 2.5-.9 4.1-4.5-.6-8.6 1.6-12.9 2.8-.5.1-1.1.4-1.4.2-2.9-1.7-6.1-.4-9-1.2-2.7-.7-5.5-1.1-8.2-1.9-3.1-.8-6-2.4-7.8-5.2-1.3-2.1-2-4.3-.6-7.1s2.7-5.4 6.7-6.5c2.4.2 5.9-.8 9.7 1.3-.3-1.4-.3-2.5-.7-3.4-1.2-2.7-2.5-5.3-3.9-7.9-1.7-3.3-2.7-6.9-3.6-10.5-.4-1.6-1.6-3.1-1.9-4.7-.7-4.3-2.5-8.4-3.2-12.7-1-5.6-2.6-11.2-4.1-16.8-1-3.7-2.5-7.3-3.6-11-1.1-3.5-1.7-7.2-3-10.8-.4-1 .1-2.3-.2-3.4-.2-1-.8-2-1.6-3.7-.2 1.6-.7 2.9-.3 3.5 1.4 2.1.9 4.4.9 6.6v58.5c0 4.4-1.4 8.6-1.1 13.1.3 4.3.4 8.7 0 13-.3 2.7-1 5.6-3.2 7.6-4.4.5-8.6 1.3-13 1.3-5.2.1-9.9-2-14.8-3.1-2.1-2.3-5.9-2.8-6.7-6.5-1-6.2 3.4-9.6 7-13.2 1.9-.5 3.7-1 5.8-1.6-.1-.8-.1-1.9-.5-2.5-2.1-3.2-2.6-6.9-4.2-10.2-1.6-3.2-3-6.5-3.7-9.9-.8-3.5-2.1-6.9-2.7-10.4-.7-3.6-1-7.4-2.6-10.9-1-2.1-.2-4.6-1.1-7-1-2.6-.2-5.9-1.3-8.5-1.2-2.7-.6-5.6-1.6-8.3-.8-2.2-.6-5-1.7-7.8-3 .5-6.2 0-9.6.8-3.2.8-6.7.9-10 1.2-3.5.3-7.1.6-10.5-.1-6.7-1.4-13.5 0-20.1-1-5.1-.8-10.1-.6-15.1-.9-2.2-.1-4.2-1.2-6.6-1-2.2.2-4.5.6-6.6-.9-.4-.3-1.3 0-2-.1-4.5-.3-9.1-.4-13.6-1.1-3.5-.5-7-1.6-10.5-2.5-.3-.1-.6-.5-.8-.4-2.6.4-5.1-.5-7.8-1.2-.8 2.6-1.7 5.1-2.3 7.6-.6 2.6-.7 5.4-1.1 8.1-.2 1.4-.8 2.7-.9 4.1-.2 1.4.2 2.9-1 4.1-.3.3-.1 1.3 0 2 .1 1.5 2.1 2.7.5 4.4-1.2 1.2.4 3.4-1.4 4.4.3 2.8-1 5.4-1 8.1 0 3.7-.9 7.2-2 10.7-1.3 4.1-2.3 8.2-2.1 12.7.1 2.6-.5 5.4-1.3 7.9-.3.9-.6 1.8-.6 2.7.2 5.7-1.8 10.9-3.2 16.2-.8 2.8-1.7 5.6-2.8 8.3-1.1 2.7-2.4 5.3-3.1 8.2-.7 2.8-2.7 5.2-4.3 7.7-.4.6-1.3.7-2 1.1-3.2 2-6.4 3.7-10.2 4.3-3.5.5-7.2.8-10.4.1-3-.7-6.1-1.2-9-2.3-4.1-1.5-7.9-3.2-10.8-6.6.7-4.7.7-4.7 7-11 2.3-.8 4.6-1.6 7.1-2.4 1.6.6 3.3 1.3 5.3 2 .5-.9 1-1.8 1.6-2.9-.3-3.4.3-7 1.7-10.5.1-.3.3-.6.2-.9-.7-4.6 1.3-9 1-13.6-.3-4.7 1.8-9.3.9-14.1-1.7-9-.2-18.1-1.1-27.1-.4-4.2-.2-8.5-1-12.6-.6-3.2-1.2-6.5-1.7-9.7-.6-3.4-.1-7-.2-10.5 0-.6-.7-1.1-.7-1.7 0-.4.4-.9.7-1.4-3.5-1-7.2.7-10.9-1.2-.3 1.7-.8 3.4-1 5.1-.6 6.3-1.5 12.7-1 19.1-1.6 4.1-.2 8.5-1.1 12.6-1.4 6.6-.1 13.1-1 19.6-.7 4.7-.4 9.4-1 14.1-.4 2.5-.1 5.3-1 7.5-1 2.6-.2 5.2-.9 7.6-1.3 4.4-1.3 9-2.8 13.3-1 2.8-.7 6-1.1 9-.2 1.5-.7 3-1.2 4.7-2.7 3.7-7.4 4.9-11.6 7.4-1.3.4-3.3-.9-4.7 1-5.4.3-10.6-.6-14.8-4-2-1.6-3.2-4.3-4.6-6.3-.7-3.8.7-6.6 3.5-8.8 2.2.5 4.8-.8 7.4 1.3 0-1.4-.1-2.5 0-3.6 2-20.2.5-40.4 1-60.6.1-4.6-1.4-9-1.1-13.6.4-4.5.1-9 0-13.5 0-1.2-.7-2.4-.9-3.6-.3-1.2.3-2.5-.7-3.8-.5-.6.2-2.2.4-4.2 0-.1-.5-.9-.7-1.8-.2-.8 0-1.6 0-2.3-.9-.3-1.4-.5-2.3-.8 2.8-3.9.8-7.8-.1-12.8.4.2-.3 0-.8-.4-7.1-6.2-12.2-13.8-15.8-22.4-3.1-7.4-7-14.4-9-22.3-2.6-2.8-2.2-6.7-3.7-10-1.3999-3.2-1.4999-7-2.3999-10.5-.4-1.6-1.6-3.1-1.9-4.7-.6-3.7-2-7.3-2.1-11.2 0-1.7-.6-3.4-1-5.1-.6-2.6-1.5-5.1-1.9-7.7-.5-2.7-.7-5.4-1-8.1-.1-.5-.3-.9-.4-1.3-.7-2.4-1.4-4.7-2.1-7.1-1.4 5.6-2.5 11.3-4.5 16.7-1.4 3.8-3.4 7.3-5.8 10.6-2 2.8-5.2 3-8.2 2.7-1-.4-1.9-.7-2.7-1.1-4.2-2.2-6.4-5.7-7.5-10.3-.7-2.9-.7-5.7-.9-8.6-.1-2.2-.1-4.4-.7-6.7-.7-2.6-1-5.7.5-8.6.6-1.1.1-2.9.1-4.9-2.4 3.9-3.7 7.9-6.8 10.7-3.1 2.9-5.6 6.4-9.6 8.6-6 .4-10.8-2-14.3-7.6v-5.2c1.8-6.3 7-9.9 10.2-15.2-3.3-3.3-2-7.4-2.4-11.4 1.9-2.7 3.8-5.5 6.1-8.6-2.5.5-4.8-.4-7.3.6-1.5.6-3.8.1-5.3-.8s-2.8-.6-4.2-.7c-1.9-.1-3.7-.1-5.6-1-4.6-2.2-9.7-3.5-13.4-7.4-3.4-3.6-5.799998-7.6-5.099998-13.3C1.3991 58 2.4991 55.8 3.9991 54.1c3.3-3.7 7.8-5.8 12.2-7.8 3.5-1.5 7.1-3.1 11-3.6.3 0 .6-.5.8-.5 2.2.5 4.1-1 6.1-.9 4.6.2 8.7-1.8 13.2-2.1 1.1-.1 2.2-1 3.4-1.6.9.2 2.1.5 3.1.8.3-.9.5-1.4.8-2.1h3.9c2-2.1 4.5-2.9 7.3-3.1 1.9-4.2 4.2-8 7.3-11.5 3.2-3.6 5.7-7.9 9.3-11.1 2.9-2.49998 5.7-5.59998 9.1-6.89998 4-1.7 8.1-3.899997 12.8999-3.69999719 4.7.20000019 9.3 0 14 .10000019 10.3.1 19.8 3.399997 28.1 9.299997 3.8 2.69998 7.1 6.29998 9.8 10.29998 1.8 2.7 3.9 5.5 6 8 3 3.4 5.1 7.3 7.5 11 4.6 7 9.4 13.9 14.4 20.5 2.4 3.2 5.5 5.8 7.7 9.2 2.1 3.4 5.2 6.3 8 9.2 1.8 1.8 4 3.3 5.9 5 4.2 3.9 6.2 8.7 6.1 14.5v1.7c1.1.7 2.3 1.5 3.4 2.2 1.7.5 3.7-.6 5 .9.8-.3 1.7-.6 2.4-.9 1.1 1.3 2.1 2.4 3.1 3.4.2-.2.4-.5.5-.7 1.7.7 3.4 1.4 5.8 2.3 3.8-.3 8.2 1 12.7 1.3 3.8.2 7.7 2.2 11.3 3.8 2.2 1 4.3 2 6.7 1.9.5 0 1.1-.1 1.5.1 4.4 2.7 9.9 1.5 14.4 3.9.3.1.7 0 1 0 7.4-.3 14.7 1.7 22.1 1 1.1-.1 2.2-.3 3.3.6.6.5 2.1.7 2.8.3 3.9-2 8.2-1.2 12.1-.7 3.9.5 7.7.6 11.6.8 2.2.1 4.2 1.3 6.6 1.1 2.2-.2 4.4.2 6.6.7 3.5.8 7.3.2 11 .2 2.2 0 4.4 0 6.6.9 1.9.8 4.2-.8 6.1 1 .4.4 1.6.2 2.4 0 4.6-.7 9.1.7 13.6 1.2 3.2.4 6.6 1.4 9.9 2.6 4.3 1.6 8.9 2.5 13.3 4.1 6.5 2.3 12.5 5.2 18.2 9.3 5.7 4.2 9.6 9.7 13 15.6 4.9 8.6 8 16.2 11 26.4 1.8 5.9 4.4 11.6 5 17.9 3.1 5.3 3.3 11.6 5.8 17.1.8 1.8.3 4.5 1.4 5.9 1.4 1.7-.2 4.1 1.8 5.3.4 3.7 3 6.5 4.7 9.5 2.6 4.6 6.7 8 10.5 11.6 2.7 2.6 6.2 3.9 9.7 4.2 3.2.3 6.3 1.5 9.6 1.2 3.4 0 6.8.3 10.1.3Zm-349.5-122c-1.6-.2-2.6.4-3 2-2.2 1.3-4.8 2-6.6 4-.2.2-.9 0-1.4 0-1.6 1.1-3.8 1.3-5 3-.8.2-1.9-.5-2 1-1 .4-2.5-.9-3 1-1.4-.1-2.8.1-4 1-.7.2-1.4.5-2.2.7-.6.2-1.2.2-1.8.3-3.3.3-6.7.7-10 1h-6c-.6-1.8-1.8-1-2.9-.6l-2.1.6c-1-1.3-2.3-2.1-4-2-.5-.7-1-1.3-1.6-2h-1.9c-1.3-2.5-3.9999-3.4-5.5999-5.5-.5-.7-1.4-1.1-2.4-1.8-.4 1.5-1.4 2.6.5 3.4 0 1.2-.1 2.3 0 3.5.2 1.2.6 2.4 1 3.5.2.7.4 1.4.7 2.2.4 1.3.9 2.6 1.3 3.8.4 2.1.7 4.1 3 5h.9999c.4 1.6 1.4 2.2 3 2 .5.7 1 1.3 1.6 2h2.1c.5.6 1.2 1.4 1.7 2h3.6c.4.3.7.9 1.2 1 .9.1 1.9 0 2.8 0 .4.3.7.9 1.2 1 .9.1 1.9 0 2.8 0h5c.9 0 1.9.1 2.8 0 .4-.1.8-.6 1.2-1 .9 0 1.9.1 2.8 0 .4-.1.8-.6 1.2-1h4.7l.5-2h3.7c1.7.1 3-.7 4-2h2.6c.4-.6.9-1.3 1.4-2 1.7-.5 3.3-1 5-1.5v-.5c1.3-1 3.5-.9 4-3l1-1 3-3c.8-.2 1.9.5 2-1 2.3-1.8 4.7-3.7 7-5.5v-2.5h2.4c1-1.2 2.9-1.9 2.6-4l1-1c1.5-.8 2.9-1.7 3-3.7-1.2-.2-2.3 2.2-3-.3-.4-.8-.8-1.6-1.4-2.9 1.3-.1 2.2-.1 3-.1.3.8.5 1.4.7 2.1.5-.1 1-.2 1.6-.2-.4-1.3 1.2-3-.9-3.8v-2l1-1c2.3-.3 2.8 1.4 3.6 3 .5-1 .9-1.9 1.2-2.4-.3-.7-.5-1.2-.7-1.6v-3.2c1.6.3 2.8.6 4 .8v-4.7c2.8-1.6-.3-2-.6-3h-4.4c-.4-.3-.7-.9-1.2-1-.9-.1-1.9 0-2.8 0-1.7.6-3.1-2.5-5-.4v1.4c-1.8.4-1 1.7-.8 2.7.2 1 .6 1.9 1 3.2-1.8.1-3 .2-4.4.3v3.4c-1.8 1.5-3.6 2.7-4.8 4.3-1.2 1.6-3.6 2-4.1 4.2l-2 2c-1.4-.4-2.5.2-2.9 1.8Zm-91.9999-26c-1 .3-2 .8-3.1 1-1.3.2-2.5 0-4.3 0 .6 1.3 1 2.1 1.4 2.9-1.5 2.7-1.5 5.4 0 8-.3 1.1-.8 2.1-.9 3.2-.2 2.2.4 4.4.8 6.6.5 3.1.1 6.3.2 9.4 0 .3.2.6.3.7 1.3.6 2.5 1.2 3.7 1.8-.5 1.3-.9 2.5-1.3 3.8 1 .7 1.8 1.3 2.7 1.9.6-1 1-1.7 1.6-2.9.9 1.2 1.4 2 2 2.7v1.9h3.6c3.2-4 6.1-8.1 7.3-12.6-.4-1.5-.7-2.7-1.1-3.9 1.9-.6 3-1.2 3.3-3.3.5-3.5 1.4-7 2.5-10.4.4-1.1.4-2.8-.2-3.6-1.6-2.2-1.3-4.5-1.5-6.9-.1-1.5-.8-2.9-1.3-4.5-2 .8-3.7 2.2-5.4 2.1-2.6-.2-2.8 2.1-4 3.4-2.2-.9-4.1-1.7-6.3-1.3Zm299.9999 240v2.5l-4.9 4.9c.4.9.8 1.7 1.2 2.5 2.8.5 5.5.9 8 1.3 1-1 1.5-1.6 2.2-2.4h9.3c.7-1.2 1.3-2.3 2.1-3.6 0-6.2-.6-12.8.2-19.2.8-6.4.8-12.7.8-19.1.1-12.5 0-25 0-37.2-.8-1.1-1.5-2.1-2.3-3.3 1-.3 1.5-.6 2.2-.8v-5.4c-.6-.2-1.1-.4-1.7-.7-1-2 .7-3 1.7-4v-4.4c-.7-.2-1.3-.4-2-.7V255c-2.8-.2-5.2-.1-6.2 2.8h-2.3c-.2-.7-.4-1.3-.6-1.8-6.3 1.2-12.4 2.4-18.1 3.4.2 1.2.3 2.3.5 4-1.4-.7-2.2-1.1-3.1-1.4v-3.1c-2.6.2-4.8-.2-7.2.4.5 4.7 1 9.2 1.5 13.6 1.6.1 3.2.3 4.9.4-.3.8-.4 1.3-.6 1.9h-2.5v5.6c.2.1 1.3.4 2.1.7-.4 2-1.5 3.8-1 4.9 1.7 4 1.9 8.2 2.7 12.3 1 4.9 2.4 9.7 3.8 14.4 1.3 4.4 3.3 8.6 4.8 12.9.9 2.5 2 4.8 3.1 7.2.8 1.5 1.8 3 1.4 4.9-.1.2.3.5.4.7.5.1 1 .2 1.6.3-.1 1.3-.1 2.6-.2 3.8h-1.8c-2-1.4-3.9-2.8-5.7-4.2-3.9 1.7-6.5 4.3-8.2 8h2.8c.8-1.1 1.8-2.4 2.9-3.9.6.1 1.5.2 3 .4-1.6 2.2-2.5 4.4-4.1 5.2-1.9 1-2 2.4-2.9 3.8l3.6 1.8c2.2-2.2 4.2-4.4 6.4-6.5.5-.2 1.5-.2 2.2-.4Zm114-92c-.5-2-2.4-1.9-3.8-2.9-.3.8-.5 1.3-.7 2.2-1-.6-1.7-1.1-2.6-1.7V249c-2.7-3.2-5.1-5.8-7.2-8.7-3-4-5.4-8.4-6.6-13.2-1.5-6-3.2-11.9-5.1-17.8-1-3.1-2.2-6.1-2.9-9.2-1.1-4.8-2.5-9.6-4.1-14.3-.1-.2-.4-.4-.6-.6l-1.2 1.2c-.4 5.7-.8 11.2-1.2 16.7-.3.3-.9.5-1 .8-.1 1.9-.2 3.7-.9 5.6-1.3 3.2-1.4 3.4 0 6.6.7 1.7.7 3.3 1 4.8 1.2.2 2.1.3 3.5.6-1.2 1.6-2 2.7-2.7 3.6.9 3.2 1.7 6 2.6 8.9 1.1.1 2.3.2 3.3.3v2.7c-1 .1-1.8.2-2.8.3 1.5 3.4 2.9 6.5 4.3 9.7.9.1 1.7.2 2.8.3v4.7c1.9.2 3.5.3 5.9.5-1.5 1.3-2.3 2-2.5 2.2l6.6 6.6c0 .1.1-.3.2-.9h3c-.6 1.3-1 2.2-1.5 3.2.8.7 1.6 1.2 2.2 1.7.9-.6 1.6-1 2.5-1.6 1.1 1.3 2 2.5 2.5 3.1 2.2.5 3.7 1.1 5.2 1.2 3.2.2 6.3.1 9.5 0 .4 0 .9-.6 1.3-1h3.4c5.4-2 9.8-3.7 14.6-5.5.7-1.3 3-1.9 3-4.8-1.3.5-2.3 1.2-3.2 1.2-4.5.1-9 .1-13.4.1-2.2-1.8-4.4-.2-6.7.1-1.9-1.7-3.8-3.4-6.7-3Zm-341-18c-.9-.7-1.8-1.3-2.4-1.8h-3.5c-.5 4.1.1 7.9 1.2 11.7l2.4.3v2.7c-.7.1-1.1.2-1.7.4v4.5c.6.2 1.2.5 1.9.8-1.4 3.3-1.7 6.7-.3 9.2-.3 1.8-.6 2.8-.7 3.9-.1 3.2-.2 6.3 0 9.5.2 3 .9 6.1.9 9.1.1 19.6 0 39.3 0 58.9-.3.4-.9.8-1 1.3-.1 2.5 0 4.9 0 7.3-3.4 1.7-5.6-2.1-8.6-1.5-1.5 1.8-2.9 3.5-2.2 5.6 2.9 1.3 5.1-1.9 8.2 0-1.2.5-2.1 1-3.1 1.3-.9.3-1.8.5-2.6.9-.4.2-.5.7-.2.3.8 1.7 1.5 3 2.1 4.2 2.3-1.3 4.5-1.7 4.9-4.2 0-.1.8-.1 1.4-.1v2.6c-.5.4-2.6 2.8-2.8 3.4.9 0 1.7-.1 2.4 0 .9.2 1.7.6 2.6 1 1.9-1.7 4.4-.6 6.5-1.3 1.4-.7 2.8-1.2 4.3-1.7 3.6-1.4 6.4-3.6 7.1-7.6.3-1.9.6-3.7.9-5.6 1.1-5.7 1.8-11.5 3-17.2.6-2.6.2-5.4 1-8.1.7-2.5.5-5.3 1-8.1.9-5.4.8-11 1.1-16.5 0-.3-.2-.6-.4-.8-.9-.1-1.8-.3-2.8-.5.3-.8.4-1.2.6-1.8h2.5c.5-4.3.1-8.5.9-12.7.9-4.4.2-9 1.1-13.6.8-4.4 0-9 1-13.6.8-3.8.2-7.9.2-12-5.7.2-10.3-3.3-15.5-4.2-.4.8-.7 1.5-.9 1.9h-2.8c.3-1.4.6-2.5.9-3.8h-4.4c-.2-2.8-2.5-3.1-4.2-4.1Zm-52.9999-137c-.3.7-.9 1.4-1 2.1-.4 4.2.5 8.2 1.7 12.2.3.9.2 1.9.3 2.9 0 .3.3.5.4.8.3 0 .6 0 1.4.1.8 4.5 1.5 9.1 2.3 13.6 2.9 2.1 5.9 4.2 8.7999 6.3 4.8 4.4 10.5 6.3 17 6 2.9-.1 5.8-.6 8.6-.8 6.6-.5 12.3-3.2 18.2-5.6 3-1.2 6-2.8 8.5-4.7 2.7-2 6-3.2 7.8-6.4.6-1.1 2.4-.9 3-2.7.4-1.2 2.5-1.8 3.4-3 1.7-2.2 3-4.7 4.5-7.1-1.2-.8-2.2-1.6-3.8-2.7 1.5-1.1 2.5-1.9 4-3h-7.2c-.1-1.1-.2-1.9-.3-2.6-3-1.5-5.8-3-8.7-4.4-.2-.1-.6.1-1 .2-.1.9-.3 1.8-.5 3.4-1.2-1.1-2.1-1.9-3.2-2.9 1.1-.5 1.8-.9 2.9-1.4-1.8-1.1-3.3-2.1-5.1-3.2-.7-.9-1.7-2.1-2.4-3-1.5-.3-2.6-.4-3.7-.6 0-.1.1-.2.1-.4.6-.2 1.2-.4 1.9-.7-.6-.5-1.1-.9-2-1.6h-3.8c-.6-1.5-1.1-2.8-1.6-4.1h-2.9v-3.4c-1.4-.7-2.7-1.2-4.1-1.9V77c-.8.4-1.5.7-2.3 1.1-.6-.6-1.1-1.2-1.6-1.8-.1-.2 0-.6.1-.9.7-.3 1.3-.6 1.9-.9-1.1-3.3-2.2-6.3-3.3-9.4-1.3-.1-2.5-.3-3.5-.4v-2.6c1.1-.2 2-.3 3.4-.5-2.4-2.8-1.5-5.6-1.5-8.3 0-.1.5-.2.8-.4 1.5.6 1.9 2.2 1.9 3.4 0 1.8 1 3.4 1 5.1 0 1.8.7 3.4 1.1 5.1 1.1 4.3 2.5 8.4 5.7 11.6 2.1 2.1 4.3 4.2 6.3 6.4 1 1 1.5 3 2.5 3.3 2 .6 2.7 2.3 4.1 3.3 1.4 1 2.9 2 4.2 3.2 4 3.6 8.5 6.3 13.8 7.8 2.8.8 5.4 2.3 8.6 3.8.9 0 2.9-.6 4.2.1 4.7 2.3 9.7 1.8 14.7 1.9 1.1 0 5.8-1.4 6.9-2h5.4c1.3-.8 2.5-1.6 3.9-2.5-.3-1.3-.6-2.5-.9-3.7-.1-.6-.5-1.4-.3-1.8 2.4-3.7-.1-6.9-1.1-10.3-.1-.3-.4-.5-.7-.9h-2.1c-.1-1-.2-1.8-.2-2.6-1.3-.9-2.6-1.5-3.6-2.5-4.3-4.5-8.8-8.9-12.6-13.8-1.9-2.5-4.3-4.4-6.1-6.9-5.3-7.6-10.7-15.1-15.6-23-4.5-7.3-9.8-14-15.3-20.6-4-4.8-9.4-7.89998-15.1-10.49998-4-1.8-8.5-1.9-12.4-3.8-.9-.5-2.3-.1-3.5-.1h-16.5c-1 0-2-.1-2.8999.2-2.9 1.1-5.9 2-8.5 3.6-3.4 2.1-7 4.39998-9.3 7.49998-2.1 2.8-4.7 5.2-6.7 8.1-2.3 3.4-5.3 6.3-6.8 10.2-.3.9-.4 1.3-1.4 1.5-.5.1-.7 1.2-1.2 2.1-2.2-.5-4.4-.1-6.3 1.2-.5.3-1.2.6-1.7.6-3.6-.2-6.9 1.4-10 2.4-5.1 1.7-10.1 3.3-15.5 3.6-2 .1-3.9 1.5-6.1 1-.3-.1-.7.7-1.1.8-2.9.6-5.5 2.1-8.2 3-3.1 1-5.4 3-8.2 4.3-1.4.9-2.6 2.6-3.9 4-.8.8-1.3 1.8-2.1 2.9.1 4 1 8 4.4 10.9 2.7 2.3 5.8 4.2 9.3 5.3 1.5.4 2.8 1.2 3.8 1.7 7.6.4 14.7.9 21.9 1.3.5 0 1 .1 1.4.3 2.1 1.3 4.7.4 6.8 1.7 7.4-.4 14.7 1.7 22.1 1 1-.1 2.3.3 2.9-.2 2-1.6 4.1-.6 6.2-.8 2.2-.3 4.2-1.7 6.6-1 .3.1.5.4.7.5v2.3c-1.6.3-3.3.2-5 1-2.6 1.3-2.7 1-2.8 3.8.6.2 1.2.4 1.6.6V91c-1.3 0-2.6 0-3.8-.1 0-1.2 0-2-.1-2.9l.2.2c.3-.2.5-.5.8-.7l-.3-.3c-.2.3-.5.5-.6.9-2.5-.1-4.5.5-5.6 3.2h-4.2c-.1 1.4-.3 2.6-.4 3.9-.8-.6-1.3-.9-2-1.5-1.1 1.5-3.1 2.1-2.8 4.4-2.8 1.3-2.6 4.4-4.3 6.4 6.9 2.9 12.5-.3 18.3-2.8v-2.6c.5-.6 1-1.3 1.7-2.1 1 .1 2.2.2 3.1.3.2.8.4 1.3.4 1.5 1.3.9 3.2-.9 3.8 1.3Zm97.9999 250c-.4 3.2-.9 6.3-1.4 9.9-.2.5-.7 1.3-1.1 2.1h-1.3c-.1-1.5-.2-3.1-.3-4.7-8.8-2.4-6.5-1.4-14.4 2.6h7.5v1.6c-.2.2-.3.4-.5.4h-7c.2.2.3.4.5.6-1.1.7-2.1 1.5-2.6 1.8.5 1.1.8 2 1.2 2.9 1.8-1.1 3.1-2.4 4.7-2.9 1.8-.5 3.8-.3 5.8-.4-.1 1-.2 1.4-.3 2h-4.6c-1.5 1.1-2.4 1.8-3.4 2.5 1.4.7 2.5 1.2 3.9 1.8.6-.9 1.2-1.7 1.7-2.3 3.1.6 5.7-2.3 8.8-.2-1.8 2.6-4.6 2.3-7.2 2.3v1.9c1.2.1 2.4-.1 3.4.2 7.2 1.9 7.2 2 12.3.9.9-.2 1.7-.8 2.6-.9 4.1-.6 6.2-2.5 8.5-5.4-1.1-.8-2.1-1.6-3.1-2.4 1.1-2.1 2.3-2.9 4-1.9.2.7.4 1.2.6 1.7.2 0 .4 0 .6-.1v-5.6c1.7-.3 2.9-.8 3-2.4.1-3.1 4-5.8.7-9.3 1.3-.8 2.3-1.5 3.2-2.1.4-1.8 2.2-3.5 1-5.1-1.4.2-2.5.4-3.8.6-.2-2.2-.1-3.7 2.1-4.1 0 0 2.5 1.8 2.6 1.9.5-3.5 1-7 1.5-10.4-.9-.3-1.5-.5-2.2-.8v-2.3c3.2-1 3.8-3.3 3.9-6.4-1 .5-1.6.9-2.4 1.3-.7-.8-1.3-1.6-2.3-2.7 1.8-.8 3.2-1.5 3.9-1.8 2.3-4.2 1.7-8.4 1.8-12.3 2.4-1.4 3.4-3 2.7-5.6h-2.7v-2.4c1.4-.5 2.7-1 3.9-1.4.1-2.8.3-5.1.9-7.5.7-2.8.3-6 .1-9-.2-2.9 1.8-5.6 1-8.6-.1-.3-.3-.6-.4-.8-.5-.1-.9-.2-1.6-.3.1-.9.1-1.8.2-2.9h2.8c.7-2.8 1.5-5.5 2-8.3.5-3.2.1-6.6 1.2-9.5 1-2.7.1-5.8 2.3-7.9h2.6c-.4 4-.9 7.7-1.3 11.9 2.3.4 4.1.7 6 1 2.7.4 5.6.3 8 1.3 4.5 1.9 9.3 1.9 13.9 2.5 6.4.9 13 .8 19.6 1.2.3 0 .7-.1 1 0 3.7 1.7 7.4 1.3 11.2 0 .8-.3 1.8.1 2.5.1.2.8.3 1.3.4 1.7h4.4c.2-.7.5-1.3.6-1.7h2.5c.2.7.4 1.3.6 1.7h5.5c.1-1 .2-1.8.3-2.6h2.7c.1 1 .1 1.8.2 2.7h4.9c-.3-1.8.8-2.6 2.6-3 .7 1 1.3 2.1 1.9 2.9h4.4c.1-1 .2-1.8.3-2.6h2.8c.1 1 .1 1.8.2 2.9 5.3-.5 10.4-1 16.3-1.5.2-.3.6-1.2 1-2.1 5.2 2.4 10.2 1 14.9 1.5.5-.4.8-.8 1.2-1.1 2-1.3 4.6-.3 6.5-1.2 2.1-.9 4.5 0 6.1-1 1.9-1.2 4 0 5.5-1.2 2-1.5 4.2.1 6.3-1.1.3-.4 1-1 .9-1.4-.6-3.4-1.2-6.8-2-10.2-.2-.9-.5-1.8-1.1-2.5-.4-.5-1.3-.7-2-1.1.6-2 2.4-3.8.2-5.8-.1-4.3-3.1-8.1-2.1-12.6h1.5c.8 2.3 2.1 4.6 2.5 6.9.9 6.2 3.8 11.9 4.1 18.3 1.7 2.6.7 6.5 4 8.2 0 1.8-.5 3.7.1 5.1 1.2 2.6 1.3 5.4 2.1 8.1.7 2.6 1.5 5.1 1.9 7.7.5 2.7 2.3 5.1 2.8 7.8 1.5 7.2 4.7 13.9 5.1 21.3 1.9 2.6 1.8 5.9 2.5 8.9.8 3 2.4 5.7 3 8.8.8 4.5 2.7 8.5 4.6 12.5 1.1 2.2 2.7 4.1 3 6.8.1.8 1.2 1.5 1.9 2.2v5.2c-4.7-.7-9.1-1.4-13.4-2.1-1.1 1.6-3.1 2.2-2.6 5.1v-.9c-.7.1-1.3.3-2 .4 0 .2.1.4.1.6.6-.1 1.3-.1 1.9-.9 2 .2 3.8-2.1 6.3-.3-.7.8-1.4 2.2-2 2.2-2.2-.1-3.1 1.5-4.2 2.7v2c1.2.6 2.3 1.1 3.8 1.7.1-1.1.1-1.9.2-2.9 1.8-1.3 2.9-3.7 5.7-4.7.1 1 .2 1.8.3 2.4-1 2.2-3.7 3-4.1 5.4 5 2.2 10.2 2.3 15.4 3.2 2.4-.6 5.1-1.4 7.9-2.1V354h4.7c.7-6 1.5-11.8 2.1-17.1-1.4-1.1-2.3-1.8-3.5-2.7 1-1.1 1.7-2 2.4-2.8v-11.8c-.8-1-1.5-1.8-2.2-2.7.9-1.1 1.7-1.9 2.3-2.6-.7-2.3-1.3-4.4-2-6.5 1.6-2.7 1.3-5.4.1-7.9 1.5-3.3 1.2-6.4 0-9 1.3-3.3 1.3-6.2-.1-9.1 1.7-2.7 1.3-5.4.4-7.4.2-1.9.8-3.5.3-4.2-.8-1.1-.6-2.2-.6-3.3-.1-1.6 0-3.3 0-4.9-1.5-.1-2.8-.2-4.2-.4.2-1.2.4-2 .6-3.4 1.4 1.1 2.3 1.9 3.3 2.7v-7.6c-1.3.2-2.5.4-3.6.5v-3.1c1.3.3 2.5.5 3.9.8-.8-3.9 2.7-7.8 0-11.9-.2-.2-.1-.7 0-1 2.2-4.5 1.4-9.6 2.9-14.3.8-2.4.7-5 1.1-7.5.3-.4 1-.8 1-1.2-.1-4.7 1.2-9.2 2-13.8 0-1.5-.6-3.5.1-4.4 1.6-2 0-4.5 1-6.1 1.4-2.1.6-4.1.8-6.2.2-2.8 0-5.7.1-8.5.1-2.6-.8-4.9-1.8-7.2-2.2-4.9-4.4-9.8-7.1-14.5-3.2-5.7-7.6-10.2-12.7-14-5.7-4.3-12.8-6.1-19.2-9.1-6.3-.2-11.9-4.2-18.3-4-4.9-2-10-2.2-15.1-2-.7 0-1.6.3-2 0-1.4-1.3-3-.8-4.6-1-1.7-.2-3.4-.8-5.1-.9-5.9-.3-11.7.5-17.6-1-2.8-.7-5.7.2-8.6-.9-2-.8-4.6 0-6.9-.2-2.2-.2-4.4-.9-6.6-.9-3.5.1-7.2-.9-10.6.9-.5.3-1.5.3-1.9 0-1.9-1.5-4.1-.8-6.1-.9-6.7-.4-13.4-.7-20.1-1-.3 0-.7.1-1 0-4-2.2-8.5-1.8-12.8-2.9-4.5-1.2-9-2.3-13.3-4.1-4-1.6-7.8-3.3-12.3-3-1.3.1-2.8.3-3.9-.1-3.3-1.3-6.7-1.6-10.1-2-1.6-2.1-4-2.4-6.3-2.8-.3-.3-.5-.9-.8-1-2.6-.1-5.3 0-8.3 0v3.8c-1.9.2-3.4.3-5.1.4.5 1.4.9 2.3 1.3 3.2-2.7 1.7-3.5-1.2-5.3-1.7-1.3.6-2.6 1.1-3.6 1.5-.2.7-.3 1.2-.5 1.6-.9.1-1.7.1-2.4.2-.6 3.2-1.7 5.9-3.9 8.1-.1.1 0 .5 0 .7l2.4.3v3.1c-1.6-.5-3-.9-4.4-1.3-.5.7-1.1 1.5-1.8 2.3l2.2 1.1v2.4c-1.4.2-2.6.3-4 .5v3.7h-2.3c-2.3 2.3-4.9 4.5-7 7.1-2 2.5-4.6 4.3-6.8 6.6-5.9 6.1-11.8 9.8-20.7 13.9-5.4 2.5-11 4.2-16.9 4.8-.2.7-.4 1.2-.6 1.9-1.8-.5-3.4-2.1-5.4-.2-.6.6-2.6.6-3.3 0-2-1.5-4.1-.7-6.2-.9-1.6-.1-3.1 0-4.6-.9-1.1-.7-2.7-.7-4-1.1-2.9-1.6-5.8-3.2-9.2999-5.2 2.2999 5.9 2.6999 11.6 5.2999 16.8.3 6.2 3.5 11.6 5.5 17.2 2.6 7.2 6.3 14 9.8 20.9 2.3 4.6 5.4 8.9 9.9 11.7 1.5.9 2.6 3.1 4.9 2.6.2.4.4 1 .7 1.2 3.8 2.4 7.6 4.7 11.6 6.9 4.4 2.4 9.2 3.6 13.6 5.8 1.9 1 4.2 1.5 6.5 1.2 1.8-.2 3.9-.6 5.4.1 3.4 1.5 6.7.5 10.3 1v-7.2h1.8c.3 4 .8 8 1 12.1.2 4.2 0 8.3 0 12.5v1c0 .3-.1.8 0 1 1.6 1.1.7 2.7 1 4.1.3 1.4.9 2.7.9 4.1.2 4.2.5 8.4.9 12.6.9 9-.4 18 1 27 .6 3.9 1.1 8.1-.8 12 .7 4.8-1.1 9.3-1 14.1 0 1.2-.4 2.5-.6 3.7-.5 2.5-1 5.1-1.5 7.8ZM29.9991 121.9c2.4 1.6 5 3.3 7.8 5.2 2.1.2 4.2-.5 5.8-2.2 1.8-1.8 3.8-3.3 5.2-5.3 2.2-3 4.6-5.9 5.7-9.6 1.4-4.5 3.6-8.5 6.2-12.4 1.8-2.7 4.1-5.1 4.7-8.5.1-.3.4-.5.8-.8 1 0 2.1-.1 3.3-.2.5-.8 1-1.5 1.5-2.3-2.1-1.1-3.8-2.2-6.2-1.2-.5.8-1 1.7-1.7 2.8h-3.8c.2 1.3.4 2.4.6 3.5-1.9.6-4.1-.5-4.9 1.6.4.8.7 1.5.9 2.1-1.5.7-2.8 1.3-3.8 1.8-1.1 1.9-1.1 4.5-4.7 4.8.8-4.2 3.5-6.7 5.2-9.7 1.8-3.2 5.3-4.9 7.1-8.4-2.2 0-4-.1-5.9 0-.8 0-1.5.4-2.2.6-2.9.9-3.5 3.7-5.1 5.7-1.7 2.2.3 3.5.2 5.4h-2.7c-3.5 8.1-9.1 14.7-14.3 21.5.3 1.9.3 3.5.3 5.6Zm7.1-28.3c-.3 2.9.6 4.3 2.1 6 .8-1.6 1.4-2.8 2.1-4.3-1.4-.6-2.6-1-4.2-1.7Z"
	/>
	<path
		fill="#1A1A10"
		d="M219.8 100.1h-2.6c-.1-1.2002-.1-2.4002-.2-3.8002h2.8V100.1Z"
	/>
	<path
		fill="#FCFC3A"
		d="M219.899 105.1c2.4.4 4.8.7 6.4 2.8 3.4.4 6.9.8 10.1 2 1.2.4 2.6.2 3.9.1 4.4-.4 8.3 1.3 12.3 3 4.3 1.8 8.8 2.9 13.3 4.1 4.2 1.1 8.8.7 12.8 2.9.3.1.7 0 1 0 6.7.3 13.4.7 20.1 1 2.1.1 4.2-.5 6.1.9.4.3 1.4.3 1.9 0 3.4-1.8 7.1-.8 10.6-.9 2.2-.1 4.4.7 6.6.9 2.3.2 4.9-.6 6.9.2 2.9 1.1 5.9.3 8.6.9 5.8 1.4 11.7.6 17.6 1 1.7.1 3.4.7 5.1.9 1.6.2 3.2-.3 4.6 1 .4.3 1.3.1 2 0 5.2-.2 10.3 0 15.1 2 6.4-.2 12 3.8 18.3 4 6.4 3 13.4 4.8 19.2 9.1 5.1 3.8 9.5 8.3 12.7 14 2.7 4.7 4.9 9.6 7.1 14.5 1.1 2.3 1.9 4.6 1.8 7.2-.1 2.8.1 5.7-.1 8.5-.1 2 .7 4.1-.8 6.2-1.1 1.6.6 4-1 6.1-.7.9-.1 2.9-.1 4.4-.7.2-1.8.2-2.1.7-1.1 1.9-2.5 4.2-1.7 6.1 1.1 2.8.6 5.4.9 8.1-.3 2.5-.3 5.2-1.1 7.5-1.5 4.7-.7 9.8-2.9 14.3-.1.3-.2.7 0 1 2.7 4.1-.8 8 0 11.9-1.4-.3-2.6-.5-3.9-.8v3.1c1.2-.2 2.3-.3 3.6-.5v7.6c-1-.8-1.9-1.5-3.3-2.7-.3 1.4-.4 2.3-.6 3.4 1.4.1 2.6.2 4.2.4 0 1.7-.1 3.3 0 4.9.1 1.1-.2 2.1.6 3.3.5.7-.1 2.3-.3 4.2.9 1.9 1.3 4.6-.4 7.4 1.4 2.9 1.4 5.8.1 9.1 1.1 2.6 1.5 5.7 0 9 1.2 2.5 1.6 5.2-.1 7.9.7 2.1 1.3 4.2 2 6.5-.6.7-1.3 1.5-2.3 2.6.7.8 1.4 1.7 2.2 2.7v11.8c-.7.8-1.4 1.6-2.4 2.8 1.2.9 2.1 1.6 3.5 2.7-.7 5.3-1.4 11.1-2.1 17.1h-4.7v2.7c-2.8.8-5.5 1.5-7.9 2.1-5.2-.9-10.5-1.1-15.4-3.2.5-2.4 3.1-3.2 4.1-5.4-.1-.6-.1-1.3-.3-2.4-2.8 1-3.9 3.4-5.7 4.7-.1 1-.1 1.8-.2 2.9-1.5-.7-2.6-1.2-3.8-1.7v-2c1.1-1.2 1.9-2.8 4.2-2.7.6 0 1.3-1.4 2-2.2-2.5-1.8-4.3.5-6.3.3-.5-2.1 1.5-2.7 2.6-4.3 4.2.7 8.6 1.3 13.4 2.1v-1.8h2.5c.8-.8 1.6-1.6 2.7-2.8-.4-2.2-.9-4.7-1.4-7.1-.8-.2-1.4-.4-1.9-.6 0-1.2.3-2.4-.1-3.2-1.2-2.1-.8-4.8-2-6.7-1.4-2.2-1.8-4.6-2.5-7-.4-1.4.1-3.1-.5-4.3-1.1-2.3-1.2-4.8-2.1-7.1-.9-2.5-1.4-5.1-2-7.7-.5-2.4-1.4-4.7-2-7.1-.9-3.3-1.9-6.6-3.1-9.7-1.2-3.3-2.3-6.7-3.4-10-3.3-9.5-5.6-19.3-8.3-29-1.7-6.1-2.9-12.3-5.7-18.1-.9-1.9-1.1-4.2-1.7-6.3-.7-.8-1.4-1.7-2-2.4h-4.6c-.3.9-.6 1.9-1 3-1 4.5 2 8.3 2.1 12.6 2.2 2 .4 3.8-.2 5.8.7.4 1.6.5 2 1.1.6.7.9 1.6 1.1 2.5.7 3.4 1.4 6.8 2 10.2.1.4-.7 1-.9 1.4-2.1 1.2-4.3-.4-6.3 1.1-1.5 1.1-3.6 0-5.5 1.2-1.6 1-3.9 0-6.1 1-1.9.8-4.5-.2-6.5 1.2-.4.3-.7.6-1.2 1.1-4.7-.5-9.7.9-14.9-1.5-.4.9-.9 1.8-1 2.1-5.9.5-11 1-16.3 1.5-.1-1.1-.1-1.9-.2-2.9h-2.8c-.1.8-.2 1.6-.3 2.6h-4.4c-.5-.9-1.2-1.9-1.9-2.9-1.8.5-2.9 1.2-2.6 3h-4.9c-.1-.9-.1-1.7-.2-2.7h-2.7c-.1.8-.2 1.6-.3 2.6h-5.5c-.1-.3-.3-.9-.6-1.7h-2.5c-.1.4-.4 1-.6 1.7h-4.4c-.1-.4-.2-.8-.4-1.7-.7-.1-1.7-.4-2.5-.1-3.8 1.3-7.5 1.7-11.2 0-.3-.1-.7 0-1 0-6.5-.3-13.1-.2-19.6-1.2-4.6-.7-9.4-.6-13.9-2.5-2.4-1-5.3-.9-8-1.3-1.8-.3-3.7-.6-6-1 .5-4.1.9-7.9 1.3-11.9h-2.6c-2.1 2.1-1.3 5.3-2.3 7.9-1.1 2.9-.7 6.4-1.2 9.5-.5 2.7-1.3 5.4-2 8.3h-2.8c-.1 1.1-.1 2-.2 2.9.7.2 1.2.3 1.6.3.1.3.3.5.4.8.8 3-1.2 5.6-1 8.6.2 3 .6 6.1-.1 9-.6 2.4-.7 4.7-.9 7.5-1.2.4-2.5.9-3.9 1.4v2.4h2.7c.7 2.6-.3 4.2-2.7 5.6-.1 3.8.5 8.1-1.8 12.3-.7.3-2.1 1-3.9 1.8 1 1.2 1.6 1.9 2.3 2.7.7-.4 1.4-.7 2.4-1.3-.2 3.1-.8 5.4-3.9 6.4v2.3c.7.2 1.3.4 2.2.8-.5 3.5-1 6.9-1.5 10.4-.1-.1-2.6-1.9-2.6-1.9-2.2.3-2.3 1.9-2.1 4.1 1.3-.2 2.4-.4 3.8-.6 1.2 1.6-.5 3.2-1 5.1-.9.6-2 1.2-3.2 2.1 3.4 3.5-.5 6.2-.7 9.3-.1 1.6-1.3 2-3 2.4v5.6c-.2 0-.4 0-.6.1-.2-.5-.3-1-.6-1.7-1.7-.9-2.9-.2-4 1.9 1 .8 2.1 1.6 3.1 2.4-2.3 2.9-4.4 4.9-8.5 5.4-.9.1-1.7.8-2.6.9-5.1 1.1-5.1 1-12.3-.9-1.1-.3-2.2-.1-3.4-.2V370c2.6 0 5.4.4 7.2-2.3-3.1-2.1-5.8.8-8.8.2-.5.7-1.1 1.5-1.7 2.3-1.4-.6-2.5-1.1-3.9-1.8 1-.7 1.9-1.4 3.4-2.5h4.6c.1-.6.2-1.1.3-2-2 .1-4-.1-5.8.4-1.6.5-2.9 1.8-4.7 2.9-.4-.9-.8-1.8-1.2-2.9.4-.3 1.5-1.1 2.6-1.8-.2-.2-.3-.4-.5-.6h7c.1 0 .2-.2.5-.4v-1.6h-7.5c7.9-4 5.6-5 14.4-2.6.1 1.6.2 3.1.3 4.7h1.3c.4-.8.9-1.7 1.1-2.1.5-3.5.9-6.7 1.4-9.9 2.1.2 4.1-.1 5.7-1.3.4-.9.8-1.6 1.3-2.7.2-1.7-.1-3.9.8-6.2.9-2.1.5-4.6 1-7 .8-3.7.3-7.6.2-11.4-.1-3.9 2-7.7.9-11.5-1.5-5.3-.6-10.7-.9-16.1 0-.7.3-1.5 0-2-1.9-3-.9-6.5-1.7-9.7-1-3.9-.5-8.3-.1-12.4.4-4.3-1.2-8.3-1.1-12.6.1-5.7 0-11.3 0-17 0-.3-.1-.6 0-.2-1.1-1.4-1.8-2.3-2.5-3.2-1.5.8-3.5-1.1-4.5 1.2h-1.8v7.2c-3.7-.6-7 .5-10.3-1-1.5-.7-3.6-.3-5.4-.1-2.3.3-4.7-.2-6.5-1.2-4.4-2.3-9.2-3.5-13.6-5.8-4-2.2-7.8-4.5-11.6-6.9-.3-.2-.5-.8-.7-1.2.7-.4 1.3-.9 1.9-1.3v-5.4c-.5-.5-.8-1.2-1.2-1.1-3.2.1-4.4-2.4-5.5-4.6-1.6-3.4-3.3-6.7-5.2-9.8-1-1.6-2.2-3.1-3-4.8-2.1-4.9-4.2-9.9-6-15-1.9-5.5-3.2-11.3-5.9-16.5-.8-1.6-.8-3.7-1.1-5.5 1.4.3 2.9.4 4 1.1 1.5 1 3 .8 4.6.9 2 .2 4.2-.6 6.2.9.8.6 2.7.6 3.3 0 2-1.9 3.5-.2 5.4.2.2-.7.4-1.2.6-1.9 5.9-.6 11.5-2.3 16.9-4.8 9-4.1 14.8-7.7 20.7-13.9 2.2-2.3 4.7-4.1 6.8-6.6 2.1-2.6 4.6-4.7 7-7.1h2.3V130c1.4-.2 2.6-.3 4-.5v-2.4c-.5-.3-1.2-.6-2.2-1.1.7-.9 1.2-1.6 1.8-2.3 1.4.4 2.7.8 4.4 1.3v-3.1l-2.4-.3c0-.2-.1-.6 0-.7 2.2-2.2 3.3-4.9 3.9-8.1.7-.1 1.5-.1 2.4-.2.1-.4.2-.8.5-1.6 1-.4 2.3-1 3.6-1.5 1.8.5 2.7 3.4 5.3 1.7-.4-.9-.7-1.9-1.3-3.2 1.7-.1 3.2-.3 5.1-.4v-3.8h8.3c.1.3.3.9.5 1.3-.9.1-1.8.1-2.7.1v2.8h2.6c.1-1.1.1-2 .1-2.9Zm210 213.8v-3.6h-3.8c.3 3.4.3 3.4 3.8 3.6Zm-4.1-13c-.1-3.6-.2-3.7-3.6-3.5v3.5h3.6Zm-.2-7.7c.5 1.4.6 2.5 1.2 3 .7.6 1.9.8 3.1 1.2v-4.2h-4.3Zm.6 54.6c4 .3 4 .3 3.3-3.7-3.2.4-3.2.4-3.3 3.7Zm-214-227.9c-.5-2.6-1.8-3.2-4-2.7v4.2c1.5-.5 2.7-1 4-1.5Zm.2 196.8c-1.2-2.5-2.4-3.1-4.2-2.3v4.3c1.6-.8 2.8-1.4 4.2-2Zm3.5-191.9c0-1.2.6-2.6-.3-3.7-1.9-.2-3.1.3-3.7 2.3 1 1.1 1.9 2.3 4 1.4Zm-12.9-12.8c.3-2.2-.2-3.5-2.3-4-1.5 1-2.3 2.1-1.3 4h3.6Zm151.1 129c2.3.3 3.5-.3 3.9-2.2-.9-1.6-2.1-2.4-3.9-1.4v3.6Zm-138.3 52.2h-3.7c-.4 1.9 0 3.2 1.9 3.9 1.9-.6 2.3-1.9 1.8-3.9Zm208.7-5.8c-2.2 1.5-3.1 2.6-2.2 4.4h4.3c-.8-1.6-1.3-2.7-2.1-4.4Zm-208.7-8.5c.5-2 .1-3.3-2.1-4-1.1 1-2.4 1.9-1.4 4h3.5Zm207.7-11.2c2.2-1.5 3.1-2.6 2.2-4.4h-4.3c.8 1.6 1.4 2.8 2.1 4.4Zm-83.7-30.5c-2.2-.5-3.3.2-3.9 2.1.5.8 1 1.5 1.4 2 2.5-.8 3-2.1 2.5-4.1Zm-64.3 1.3c1 1.5 1.5 2.3 2 3 2.4-1.3 3.2-2.5 2.1-4.4-.7 0-1.5-.2-2 0-.7.3-1.3.9-2.1 1.4Zm150.8 92.6h2.3c.5-.6 1.1-1.3 1.7-2-.7-1-1.2-1.7-1.6-2.3-2.5.9-3 2.2-2.4 4.3Zm-214-26.1c2.1.3 3.3-.3 3.7-2.1-.5-.9-1-1.6-1.4-2.2-2.4 1-3 2.3-2.3 4.3Zm-9.5-178.8c-2.2-.5-3.3.2-3.9 2.1.5.8 1 1.5 1.4 2 2.5-.8 3-2.1 2.5-4.1Zm224.9 157.7c-.6.7-1.3 1.5-1.8 2.1 1 1.9 2.2 2.6 4.1 1.7.3-1.7-.2-3-2.3-3.8Zm-210-30c-.6.7-1.3 1.5-1.9 2.2 1.1 1.8 2.3 2.5 4 1.7.6-1.8 0-3.1-2.1-3.9Zm101.2-8.8c.3-2.3-.2-3.7-2.4-4.1-.6.8-1.2 1.5-1.9 2.3.8.7 1.5 1.2 2.3 1.8h2Zm-121.8-123.8c-2 1-2 1-1.6 3.7 1.8.3 3.1-.2 3.6-2.5-.5-.3-1.2-.7-2-1.2Zm60.4 119.4c-2.4 1.2-3.2 2.5-2.1 4.4 1.9.3 3.2-.3 2.8-1.5-.2-1-.4-2-.7-2.9Zm-20.6.2c.5-2.2-.2-3.3-2.1-3.9-.8.5-1.5 1-2 1.4.8 2.5 2.1 3 4.1 2.5Zm-24.4-130.3c-1-1.5-1.5-2.3-1.9-2.9-2.4 1.3-3.2 2.5-1.9 4.8l3.8-1.9Zm9.2 2.1c-1.3 2.4-.5 3.6 1.6 4.7.7-.8 1.3-1.6 2.3-2.8-1.6-.8-2.7-1.3-3.9-1.9Zm-5.1.7c-2.9-.7-4.2-.1-4.7 2.1.8.6 1.5 1.2 2.6 2.1.7-1.5 1.3-2.7 2.1-4.2Zm-17.7-.2h-3.8v2.7h3.8v-2.7Zm232.2 204.7h3c-.1-1.4-.1-2.6-.2-3.7h-2.8v3.7Zm2.8-20.7h-3c.1 1.4.1 2.6.2 3.7h2.8v-3.7Zm-12.8-15.3c1.4 1.1 2.2 1.8 3.2 2.5.8-.9 1.4-1.7 2.1-2.5-.9-.8-1.6-1.4-2.5-2.3-1 .8-1.7 1.4-2.8 2.3Zm3-11.4c-1.1 1.1-1.7 1.8-2.6 2.7 1.1.9 2 1.5 2.9 2.2.8-1 1.3-1.7 2-2.5-.8-.8-1.4-1.4-2.3-2.4Zm-101.3-21.5v-3c-1.4.1-2.6.1-3.7.2v2.8h3.7Zm30.8-5.9c-1.1-1.1-1.8-1.7-2.7-2.6-.9 1.1-1.5 2-2.2 2.9 1 .8 1.7 1.3 2.5 2 .8-.8 1.4-1.3 2.4-2.3Zm10.2-6.5c-.8 1.1-1.4 1.9-2.1 2.8 1 .7 1.8 1.3 2.6 1.9.8-.9 1.4-1.6 2.2-2.6-.9-.6-1.5-1.1-2.7-2.1ZM211.299 111c1.4 1.1 2.1 1.7 3 2.4.8-.9 1.4-1.6 2.1-2.4-.7-1-1.3-1.8-2.2-3.1-1.3 1.4-1.9 2-2.9 3.1Zm138.1 132.9c-1.1-.8-1.9-1.4-2.8-2.1-.7 1-1.3 1.8-1.9 2.6.9.8 1.6 1.4 2.6 2.2.7-.9 1.2-1.6 2.1-2.7Zm-42.5.3c-1.4-1.1-2.2-1.8-3.2-2.5-.8.9-1.4 1.7-2.1 2.5.9.8 1.6 1.4 2.5 2.3 1-.8 1.7-1.4 2.8-2.3Zm-54.1-2.6c-.8 1.1-1.4 1.9-2.1 2.8 1 .7 1.8 1.3 2.6 1.9.8-.9 1.4-1.6 2.2-2.6-.9-.6-1.5-1.1-2.7-2.1Zm-14.7-.6c2.4.1 3.8-.3 3.9-2.8h-3.9v2.8Zm21.3-.1c-1-2.5-2.1-3.4-4.4-2.6.1.9.1 1.8.2 2.6h4.2Zm-59.1 112v4h2.5c.6-2.2-.1-3.5-2.5-4Zm230.9-3.7c2.5-.6 3.2-1.9 2.7-3.6-.1-.4-1.6-.4-2.7-.7v4.3Zm-223.1-21c-.3 2.4.3 3.7 2.7 4v-4h-2.7Zm222.1-1.3c-.6-2.5-1.9-3.2-3.6-2.7-.4.1-.4 1.6-.7 2.7h4.3Zm-4.3-19.3c.2 2 1.4 2.7 3.3 2.5.3 0 .5-.3.6-.4v-2.6h-3c-.2 0-.5.3-.9.5Zm5.4-65.5v4.1c2.7-1.4 2.7-1.4 2.2-4.1h-2.2Zm-214.1-115.5c2.4-1.1 3.5-2.2 2.5-4.5-.9.1-1.8.1-2.5.2v4.3Zm0 162.6c2.3-.4 3-1.6 2.8-3.5 0-.3-.4-.5-.4-.5h-2.6c.1 1.5.1 2.7.2 4Zm106.8-39.3h2.8c.5-2.2-.1-3.5-2.3-3.9-.2.4-.5.6-.5.9v3Zm101.9 33.8c4.2.3 4.2.3 3.6-2.7-1.8-.2-3.1.4-3.6 2.7Zm3.6-16.6c.4-2.7.4-2.7-2.2-4.1v4.1h2.2Zm-136.5-19.7c-2-1-3.1 0-4 1.2-.2.3.1.9.1 1.2h3.8c.1-.9.1-1.5.1-2.4Zm-8 6.6c2.3.3 3.8-.1 4.1-2.6h-4.1v2.6Zm47-15.4c1.3 2.4 1.3 2.4 4 1.9-1.3-2.4-1.3-2.4-4-1.9Zm-124.9 98c-.2-2-.3-3.3-.4-5.3-1.4 1.2-2.2 1.9-3.2 2.8.7.7 1.1 1.2 1.6 1.6.3.2.8.3 2 .9Zm93.7-91.4c-1.4 1.3-2.2 2.1-3.3 3 1.2.9 2 1.4 3.3 2.3v-5.3Zm60.1-.3c-1.6 1.7-2.4 2.5-3.4 3.6 1.3.7 2.2 1.2 3.4 1.9v-5.5Zm-140.2 33.1c-1.3-.9-2.2-1.5-3.7-2.7.2 2.2.3 3.5.4 5.5 1.3-1.1 2.1-1.8 3.3-2.8Zm-7.4-1.1c1.4-1.3 2.2-2.1 3.2-3.1-1.2-.8-2-1.4-3.2-2.3v5.4Zm211.8-13.3c-.2-2-.3-3.3-.4-5.3-1.4 1.2-2.2 1.8-3.2 2.7.7.7 1.1 1.2 1.6 1.6.3.3.7.4 2 1Zm-177-12.9c.9-1.3 1.5-2.2 2.7-3.7-2.2.2-3.5.3-5.5.4 1.1 1.4 1.8 2.1 2.8 3.3Zm57.7 3.3v-3c-1.1.1-2 .2-2.7.2v2.7c1 .1 1.8.1 2.7.1Zm-30.1-12.9v-2.8h-2.8c.1 1.1.2 2 .3 2.8h2.5Zm48.3-.3h2.8V238c-1.1.1-2 .2-2.8.3v2.5Zm94.1 26.1h3c-.1-1.1-.2-2-.2-2.7h-2.7c-.1 1-.1 1.7-.1 2.7Zm-211.1 74.4h-2.8v2.8c1.1-.1 2-.2 2.8-.3v-2.5Zm226.9-70.3v-3c-1.1.1-2 .2-2.7.2v2.7c.9.1 1.7.1 2.7.1Zm-.2 69.1v-2.8h-2.8c.1 1.1.2 2 .3 2.8h2.5Zm-229.5-212.9v3c1.1-.1 2-.2 2.7-.2v-2.7c-1-.1-1.8-.1-2.7-.1Zm12.9 126.7h3c-.1-1.1-.2-2-.2-2.7h-2.7c-.1 1-.1 1.8-.1 2.7Zm117.8-6.7h-3c.1 1.1.2 2 .2 2.7h2.7c.1-.9.1-1.7.1-2.7Zm-115-130.2v-3c-1.1.1-2 .2-2.7.2v2.7c.9.1 1.7.1 2.7.1Zm211.1 213.8h2.8V328c-1.1.1-2 .2-2.8.3v2.5Zm-226.9-209.9h3c-.1-1.1-.2-2-.2-2.7h-2.7c-.1 1-.1 1.7-.1 2.7Zm227 159h3c-.1-1.1-.2-2-.2-2.7h-2.7c-.1 1-.1 1.7-.1 2.7Zm-136.9-37.7v3c1.1-.1 2-.2 2.7-.2v-2.7c-1-.1-1.8-.1-2.7-.1Zm-26 9v3c1.1-.1 2-.2 2.7-.2v-2.7c-1-.1-1.8-.1-2.7-.1Zm165.8 60.1h-2.8v2.8c1.1-.1 2-.2 2.8-.3v-2.5Zm-122.7-60.2v2.8h2.8c-.1-1.1-.2-2-.3-2.8h-2.5Zm-14.6 3v-2.8h-2.8c.1 1.1.2 2 .3 2.8h2.5Zm-105.4-123v2.8h2.8c-.1-1.1-.2-2-.3-2.8h-2.5Zm16.8 182.8h3c-.1-1.1-.2-2-.2-2.7h-2.7c-.1 1-.1 1.7-.1 2.7Zm71.9-62.6h-2.8v2.8c1.1-.1 2-.2 2.8-.3v-2.5Zm151 45.5h2.8V294c-1.1.1-2 .2-2.8.3v2.5Zm-211.3-162.7v-2.8h-2.8c.1 1.1.2 2 .3 2.8h2.5Zm-11.5-2.9v3c1.1-.1 2-.2 2.7-.2v-2.7c-1-.1-1.8-.1-2.7-.1Zm165.6 110.6c-1.8.6-3 1.1-2.7 3.1h3c-.1-1.1-.2-2-.3-3.1Zm-97.5 6.6c-.1-.3-.2-.7-.3-1h-3.2c.2 1.1.3 2 .6 3.4 1.3-1.1 2.1-1.8 2.9-2.4Zm141.3 101.8c.9 1.9 1.5 3.1 3.5 2.8-.1-1.2-.1-2-.2-2.8h-3.3Zm-200.4-83v3.9c1.1-.1 2-.1 3-.2-.2-.8-.3-1.3-.5-1.6-.5-.6-1.2-1-2.5-2.1Zm210.1 77.4c1.6-.9 3.1-1.2 2.6-3.3h-2.9c.1 1 .1 1.9.3 3.3ZM78.9984 88.0997v2.8c1.2.1 2.4.1 3.9.2v-2.7c-.5-.2-1-.4-1.6-.6 0-2.9.2-2.6 2.8-3.8 1.6-.8 3.4-.7 5-1v-2.3c-.2-.2-.4-.5-.7-.5-2.3-.6-4.4.7-6.6 1-2 .2-4.2-.8-6.2.8-.6.5-1.9.1-2.9.2-7.4.7-14.7-1.4-22.1-1-2.1-1.3-4.7-.4-6.8-1.7-.4-.2-.9-.3-1.4-.3-7.2-.4-14.4-.8-21.9-1.3-1-.5-2.4-1.3-3.8-1.7-3.5-1-6.6-3-9.29996-5.3-3.4-2.9-4.4-7-4.5-11 .8-1.1 1.4-2.1 2.1-2.9 1.3-1.4 2.5-3.1 4.1-3.8 2.79996-1.3 5.09996-3.3 8.19996-4.3 2.7-.9 5.3-2.4 8.2-3 .4-.1.8-.8 1.1-.8 2.2.5 4.1-.9 6.1-1 5.4-.3 10.4-1.9 15.5-3.6 3.2-1.1 6.4-2.7 10-2.4.6 0 1.2-.3 1.7-.6 2-1.3 4.1-1.7 6.3-1.2.5-.8.7-2 1.2-2.1 1-.2 1.1-.6 1.4-1.5 1.5-3.9 4.5-6.8 6.8-10.2 2-2.9 4.6-5.3 6.7-8.1 2.3-3.1 5.9-5.39998 9.3-7.49998 2.6-1.6 5.6-2.5 8.4996-3.6.9-.3 1.9-.2 2.9-.2h16.5c1.2 0 2.5-.4 3.5.1 4 1.9 8.4 2 12.4 3.8 5.7 2.6 11.1 5.69998 15.1 10.49998 5.7 6.5 11.1 13.2 15.5 20.5 4.8 7.9 10.3 15.4 15.6 23 1.7 2.5 4.2 4.5 6.1 6.9 3.8 4.9 8.3 9.3 12.6 13.8 1 1 2.3 1.6 3.6 2.5.1.8.1 1.6.2 2.6h2.1c.4.4.7.6.7.9 1 3.3 3.4 6.5 1.1 10.3-.3.4.1 1.2.3 1.8.3 1.2003.6 2.4003.9 3.7003-1.4.9-2.6 1.6-3.9 2.5h-5.4c-.4-.7-.9-1.3-1.4-2.1-5.5.7-10.8-.9-16.1-2-4.4-.9-8.8-1.8-12.9-3.9003-3.4-1.8-6.9-3.5-10.3-5.3-1.1-.6-2.2-1.3-3.1-2.1-2.3-2.2-5.2-3.7-7.6-5.7-3.7-3.3-7.5-6.6-9.7-11.4-2.6-5.7-5.4-11.2-5.9-17.5-.1-1-.4-2.3-1-3-1.1-1.2-2.6-2.1-3.7-3.1-1.3.7-2.2 1.2-3.2 1.7v1.5c-.3.1-.8.2-.8.4-.1 2.7-1 5.5 1.5 8.3-1.5.2-2.4.4-3.4.5v2.6c1 .1 2.2.2 3.5.4 1.1 3 2.1 6.1 3.3 9.4-.5.2-1.2.6-1.9.9 0 .3-.2.7-.1.9.5.6 1 1.2 1.6 1.8.8-.4 1.4-.7 2.3-1.1v4.5c1.4.6 2.7 1.2 4.1 1.9v3.4h2.9c.5 1.3 1 2.6 1.6 4.1h3.8c.8.7 1.3 1.1 2 1.6-.8.3-1.3.5-1.9.7 0 .1-.1.2-.1.4 1.1.2 2.2.4 3.7.6.7.9 1.7 2.1 2.4 3 1.8 1.1 3.3 2.1 5.1 3.2003-1.1.5-1.8.9-2.9 1.4 1.1 1 2 1.8 3.2 2.9.3-1.6.4-2.5.5-3.4.4-.1.8-.3 1-.2 2.9 1.4 5.8 2.9 8.7 4.4.1.7.2 1.5.3 2.6h7.2c-1.5 1.1-2.5 1.9-4 3 1.5 1.1 2.6 1.9 3.8 2.7-1.5 2.4-2.8 4.8-4.5 7.1-.9 1.2-3 1.8-3.4 3-.6 1.8-2.4 1.6-3 2.7-1.8 3.2-5.2 4.4-7.8 6.4-2.5 2-5.5 3.5-8.5 4.7-5.9 2.4-11.6 5-18.2 5.6-2.8.2-5.7.7-8.6.8-6.5.3-12.2-1.7-17-6-.1-1.9.4-4.3-.5-5.7-1.1996-1.9.7-4.4-1.4996-5.8 0-1.9-.5-3.7-.9-5.6-.8-3.5-2.2-6.8-2.9-10.2-.8-3.5-2-6.8-4.2-9.7-.2-.2 0-.6 0-1v-3.1003c-1.2.1-2.1.2-3 .3V100.3h-1c-.7-2.1003-2.5-.4003-3.8-1.2003-.1-.3-.2-.7-.4-1.5-1-.1-2.1-.2-3.1-.3-.7.8-1.2 1.4-1.7 2.1-.4-.3-.9-1-1.2-.9-1.2.2-2.3.7-3.5.9-1.4.3-2.8.3-4.2.5-.4.1-4.4-1.1-5-1.5-.4-2.3 1.7-2.8 2.8-4.4.7.5 1.2.9 2 1.5.1-1.3.2-2.5.4-3.9h4.2c.6-3 2.7-3.7 5.1-3.5Zm-55.5-21c1.2-.8 2.3-1.5 3.3-2.2 2-1.6 3.8-3.5 6-4.7 3.2-1.7 3.4-4.1 3.1-7-3.9-2-7.5-4.9-11.6-3.9-4.8 1.1-10.4 1.4-13.3 6.7 2.1 8.7 4.7 11.1 12.5 11.1Zm77.8996-36.9c-2.6996 2.4-2.5996 5.4-2.3996 8.5.6.8 1.0996 1.8 1.8996 2.4 1 .7 2.3.9 3 1.2 3-1.4 3.3-3.9 4-6.1.6-2 .1-4.1-1.3-5.9-1.7-.1-3.5-.1-5.2-.1Zm-18.0996-4.1c-2.5 3-2.4 6.4-3.4 9.3 1.4 1.2 2.3 3.2 4.9 2.5.9-1.3 2-2.8 3.1-4.2v-5.8c-1.1-2.5-2.9-1.7-4.6-1.8ZM165.098 117c2.3.3 3.5-.3 3.9-2.2-.9-1.6-2.1-2.4-3.9-1.4v3.6Zm-8.4-5.4c-1.5-2.2-2.6-3.1-4.4-2.2v4.3c1.5-.8 2.7-1.4 4.4-2.1ZM84.4984 96.4997c2.4-1.2 3.2-2.5 2.1-4.4-2.2.3-2.2.3-2.7 1.5.2.9.4 2 .6 2.9Zm8.2-4.8c-1.3 2.4-.5 3.6 1.6 4.7.7-.8 1.3-1.6 2.3-2.8-1.6-.8-2.7-1.3-3.9-1.9Zm42.3996.5c-.3 2.2.3 3.4 2.1 3.9.8-.5 1.6-1 2.3-1.5-2-2.3-2-2.3-4.4-2.4Zm6.4 3.4c-2.3 1.3-3.2 2.4-2.1 4.4 2.2-.3 2.2-.3 3.7-2.3-.5-.7-1-1.4-1.6-2.1Zm-39.6 1.1c1.1-1.2 1.7-1.8 2.6-2.8-1.1-.9-2-1.5-2.9-2.2-.8 1-1.3 1.7-1.7996 2.4.6996.9 1.1996 1.5 2.0996 2.6Zm-2.0996-5.9v-2.7c-2.1-.3-3.6.2-4 2.7h4Zm-24.3 1.3c-.4 2.7-.4 2.7 2.2 4.1v-4.1h-2.2ZM161.198 113.4c2.6-.9 3.3-2.1 2.6-4.4-1 .1-1.8.1-2.6.2v4.2Zm-1 .8h-4.2c.1 1.1.1 1.9.2 2.7 2.2.5 3.4-.2 4-2.7ZM88.1984 88.1997v3c1.1-.1 2-.2 2.7-.2v-2.7c-1-.1-1.8-.1-2.7-.1ZM150.798 108v-3c-1.1.1-2 .2-2.7.2v2.7c1 .1 1.8.1 2.7.1Zm-42.9-19.8003h-3c.1 1.1.2 2 .2 2.7h2.7c.1-.9.1-1.7.1-2.7Zm53.4 29.9003v2.8h2.8c-.1-1.1-.2-2-.3-2.8h-2.5Zm-17.5-17.1c.3 1.5.4 2.3.7 3.9 1.3-1.4 2-2.2 3.3-3.6-1.7-.1-2.6-.2-4-.3Zm-9.5-10.0003c-.5-1.9-1.1-3.1-3.1-2.9v2.9h3.1Z"
	/>
	<path
		fill="#FCFC3A"
		d="M140 237.1c1.7 1 4 1.3 4.3 4h4.4c-.3 1.3-.6 2.4-.9 3.8h2.8c.2-.4.5-1.1.9-1.9 5.2.9 9.7 4.4 15.5 4.2 0 4.1.6 8.2-.2 12-1 4.6-.1 9.2-1 13.6-.9 4.6-.1 9.2-1.1 13.6-.9 4.2-.5 8.4-.9 12.7h-2.5c-.2.6-.3 1-.6 1.8 1 .2 1.9.3 2.8.5.1.2.4.5.4.8-.3 5.5-.3 11.1-1.1 16.5-.4 2.7-.3 5.5-1 8.1-.8 2.7-.4 5.5-1 8.1-1.2 5.7-1.9 11.5-3 17.2-.4 1.9-.6 3.7-.9 5.6-.7 4-3.5 6.2-7.1 7.6-1.4.6-2.9 1.1-4.3 1.7-2.1.6-4.5-.5-6.5 1.3-.9-.3-1.7-.8-2.6-1-.8-.2-1.6 0-2.4 0 .2-.6 2.3-3 2.8-3.4v-2.6c-.6 0-1.4 0-1.4.1-.4 2.5-2.6 2.9-4.9 4.2-.6-1.2-1.2-2.5-2.1-4.2-.3.5-.1-.1.2-.3.8-.4 1.8-.6 2.6-.9.9-.4 1.9-.8 3.1-1.3-3.1-1.9-5.3 1.3-8.2 0-.7-2.2.7-3.9 2.2-5.6 3-.6 5.2 3.3 8.6 1.5v-7.3c0-.4.6-.9 1-1.3 1.1.4 2.3.9 3.1 1.2 1.6-1.5 2.8-2.6 4.1-3.9-.4-1.8-1.1-3.6-1.2-5.5-.2-4-.1-8-.1-11.9 0-3.8-.3-7.6.1-11.4.3-4-1.3-7.6-1.1-11.5.2-3.1-.1-6.3.1-9.4.2-3.2.6-6.4 1-9.5 1-.1 2-.2 3.4-.4-.9-1.8-1.6-2.9-3.4-2.6v-5c1.7.2 2.6-.7 3.2-2.5-.6-.4-1.2-.9-2-1.5H143v-5h2.5c.5-.6 1.1-1.3 1.7-2-.7-1-1.3-1.7-1.7-2.3-1.3.7-1.9 1-2.6 1.4v-6h3.8c.5-2-.8-2.5-2.2-3.2-.5.7-1.1 1.5-1.6 2.2-1.9-.5-.6-2-1-3v-3c-.3-1.7-.7-3.3-1-5 1.8-1.1.9-2.6.8-4h-1.8c.1-2 .1-3.7.1-5.3Zm8.2 25.8h2.6v-4c-2.4.5-3.2 1.7-2.6 4Zm3.9 9.3c-.3 2.4.3 3.7 2.7 4v-4h-2.7Zm5.9-8.4c1-1.4 1.6-2.3 2.6-3.5h-5.1c.9 1.3 1.5 2.1 2.5 3.5Zm6.7 10.2c-1.3-.9-2.2-1.5-3.7-2.7.2 2.2.3 3.5.4 5.5 1.3-1.1 2.1-1.8 3.3-2.8Zm-.7 7.3h-2.8v2.8c1.1-.1 2-.2 2.8-.3v-2.5Zm-12-14.5h2.8V264c-1.1.1-2 .2-2.8.3v2.5Zm-1.2 4.2v-3c-1.1.1-2 .2-2.7.2v2.7c1 .1 1.8.1 2.7.1Zm-2.6-19.8v3c1.1-.1 2-.2 2.7-.2v-2.7c-1-.1-1.8-.1-2.7-.1Zm4 30v3c1.1-.1 2-.2 2.7-.2v-2.7c-1-.1-1.8-.1-2.7-.1Zm2.7-23.2v-3c-1.1.1-2 .2-2.7.2v2.7c.9.1 1.7.1 2.7.1Zm-4 36.2h-3c.1 1.1.2 2 .2 2.7h2.7c.1-.9.1-1.7.1-2.7Zm4.3 6.9c-.3-1.4-.4-2.3-.7-3.9-1.3 1.4-2.1 2.2-3.4 3.6 1.8.2 2.7.2 4.1.3Zm5.7-6.9H157c.1 1.1.1 2 .2 3 .8-.2 1.3-.3 1.6-.5.6-.5 1-1.1 2.1-2.5Zm-9.4-6.3c-.9-1.9-1.5-3.1-3.5-2.8.1 1.2.1 2 .2 2.8h3.3Zm-7.3-36.9c1.7-1.5 3.4-1.7 2.6-3.9-1 .1-1.9.1-2.6.2v3.7Zm10.9-4.2c-1.5.3-2.3.4-3.7.7.9 1.1 1.3 1.7 1.8 2.2.3.3.8.3 1.6.5.1-1 .2-1.9.3-3.4ZM354 262.1c.8.4 1.6.8 3.1 1.4-.2-1.7-.4-2.8-.5-4 5.7-1.1 11.8-2.2 18.1-3.4.2.5.4 1.1.6 1.8h2.3c1-2.9 3.5-3 6.2-2.8v2.5c.7.2 1.3.4 2 .7v4.4c-1 1.1-2.6 2-1.7 4 .6.2 1.1.4 1.7.7v5.4c-.7.2-1.3.5-2.2.8.8 1.2 1.5 2.2 2.3 3.3v37.2c0 6.4 0 12.7-.8 19.1-.8 6.4-.2 13-.2 19.2-.8 1.3-1.4 2.4-2.1 3.6h-9.3c-.7.8-1.3 1.4-2.2 2.4-2.5-.4-5.3-.9-8-1.3-.4-.8-.8-1.6-1.2-2.5l4.9-4.9v-2.5c2.3 0 4.4 2.1 7.1.5.6-1 1.3-2.2 1.9-3.3-1-3.6-3.5-6.4-4.8-9.6-1.4-3.4-2.8-6.8-4-10.2-1.2-3.2-2.4-6.6-3.1-9.9l.8-.8c0-.1 0-.2-.1-.3-1.7-2-2.7-4.9-2.8-8.3.7.4 1.4.7 2 1.1 1.9-1.8 2.4-2.9 1.5-4.1-1.1.1-2.3.1-3.5.2v1.8c-1.9-.5-.6-2-1-3s.9-2.5-1-3c0-1.2.5-2.8-.1-3.4-1.5-1.6-.1-3.8-1-5-1.5-1.9-.5-3.8-.8-5.7.9-.1 1.8-.1 2.7-.1v-2.8h-2.6c0 1 0 2-.1 2.8-.4-.2-1-.5-1-.7 0-2.9-1.7-5.6-1-8.6-1.9-1.8-.9-4-.9-6.1-.2-2.3-1.9-4.3-1.2-6.6Zm11.7 29.2c.8.6 1.4 1.1 2.1 1.6h2c.6-1.9 0-3.2-2.4-4.1-.4.5-.9 1.3-1.7 2.5Zm-7.5-19.9c-.4 2.9.1 4.3 2.3 4.7.6-.8 1.2-1.5 2.1-2.6-1.6-.7-2.7-1.2-4.4-2.1Zm20.7-10.3c.9 1.8 2.2 2.5 4.1 1.6.2-1.7 0-3.1-2.6-3.9-.4.5-.9 1.3-1.5 2.3Zm.7 56c-1.1-1.1-1.8-1.7-2.7-2.6-.9 1.1-1.5 2-2.2 2.9 1 .8 1.7 1.3 2.5 2 .8-.8 1.4-1.3 2.4-2.3ZM366 277.3h-3.8v2.8c1.4-.1 2.6-.1 3.8-.2v-2.6Zm4.9-3.1c-1.4-1.1-2.2-1.8-3.2-2.5-.8.9-1.4 1.7-2.1 2.5.9.8 1.6 1.4 2.5 2.3 1-.8 1.7-1.4 2.8-2.3Zm4.3 24v2.6h4c-.4-2.5-1.8-3-4-2.6Zm-5.2 0c-2.3-.3-3.8.1-4.1 2.6h4.1v-2.6Zm-3.9-29.8c-4.2-.3-4.2-.3-3.6 2.7 1.9.2 3.1-.4 3.6-2.7Zm13.5 38.6c-2.1.2-3.3.3-5.3.4 1.1 1.4 1.7 2.1 2.6 3.2.7-.7 1.2-1.1 1.6-1.5.3-.4.4-.8 1.1-2.1Zm-14.9-14.8c-1.4 1.3-2.2 2.1-3.2 3.1 1.2.8 2 1.4 3.2 2.3v-5.4Zm14.9-2.2c-2 .2-3.3.3-5.3.4 1.1 1.4 1.8 2.2 2.6 3.2.7-.7 1.2-1.1 1.6-1.6.3-.3.4-.7 1.1-2Zm-12.7-2.2c-1.3-1.4-2.1-2.2-3.1-3.2-.8 1.2-1.4 2-2.3 3.2h5.4Zm11.2-10.6c1.3 1.6 2 2.3 2.7 3.2 1.3-.9 2.6-1.4 2-3.2h-4.7Zm-3.3-3c.2.3.3.6.5.9 1.3-.1 2.5-.2 4.5-.3-1.2-1.4-1.8-2.2-2.8-3.3-.9 1.1-1.6 1.9-2.2 2.7Zm-3.6-6v3c1.1-.1 2-.2 2.7-.2v-2.7c-1-.1-1.8-.1-2.7-.1Zm-.1-5.3h3c-.1-1.1-.2-2-.2-2.7h-2.7c-.1 1-.1 1.7-.1 2.7Zm-3.9 18.3v3c1.1-.1 2-.2 2.7-.2v-2.7c-1-.1-1.8-.1-2.7-.1Zm10.5 2.9v-2.8h-2.8c.1 1.1.2 2 .3 2.8h2.5Zm-6.6 3.8h3c-.1-1.1-.2-2-.2-2.7h-2.7c-.1 1-.1 1.7-.1 2.7Zm2.8 23.3h-3c.1 1.1.2 2 .2 2.7h2.7c.1-.9.1-1.7.1-2.7Zm-15.8-44.3h3c-.1-1.1-.2-2-.2-2.7h-2.7c-.1 1-.1 1.7-.1 2.7Zm13 30h3c-.1-1.1-.2-2-.2-2.7h-2.7c-.1 1-.1 1.8-.1 2.7Zm9.1 0c.3.1.6.3.9.4.8-.8 1.5-1.7 2.7-3h-3.6v2.6Zm2.6-8.8c.5-2-.5-2.7-2.5-3.1v3.1h2.5Zm-2.6 26.4c1.9-.9 3.1-1.5 2.8-3.5-1.2.1-2 .1-2.8.2v3.3Zm-2.1-50.6c-1.4.3-2.3.4-3.9.7 1.4 1.3 2.2 2.1 3.6 3.4.1-1.8.2-2.7.3-4.1Zm5.6 4.6c-3.7-.3-3.7-.3-3.2 2.7.4-.2 1-.2 1.3-.5.6-.5 1-1.1 1.9-2.2Zm-12.6 36.9c1.1-.8 3.1.8 2.8-2.1h-2.8v2.1Z"
	/>
	<path
		fill="#FDFDFD"
		d="M379 217.1c.3-1 .7-2 1-3h4.6c.6.7 1.4 1.6 2 2.4.5 2.1.8 4.4 1.7 6.3 2.8 5.8 4 12 5.7 18.1 2.7 9.7 5 19.5 8.3 29 1.1 3.3 2.2 6.7 3.4 10 1.1 3.1 2.2 6.4 3.1 9.7.6 2.4 1.5 4.8 2 7.1.6 2.6 1.1 5.2 2 7.7.8 2.3.9 4.8 2.1 7.1.6 1.2.1 2.9.5 4.3.7 2.3 1.1 4.8 2.5 7 1.2 1.9.8 4.5 2 6.7.4.8.1 1.9.1 3.2.6.2 1.1.3 1.9.6.5 2.4.9 4.8 1.4 7.1-1.1 1.1-1.9 1.9-2.7 2.8h-2.5v-3.4c-.7-.8-1.8-1.4-1.9-2.2-.3-2.6-1.9-4.5-3-6.8-1.9-4-3.8-8.1-4.6-12.5-.5-3-2.2-5.7-3-8.8-.7-2.9-.6-6.3-2.5-8.9-.3-7.4-3.6-14.2-5.1-21.3-.5-2.7-2.3-5.1-2.8-7.8-.5-2.6-1.2-5.1-1.9-7.7-.7-2.7-.9-5.5-2.1-8.1-.6-1.4-.1-3.3-.1-5.1-3.3-1.7-2.3-5.6-4-8.2-.3-6.3-3.2-12.1-4.1-18.3-.4-2.4-1.6-4.6-2.5-6.9-.5-.1-1-.1-1.5-.1Z"
	/>
	<path
		fill="#FCFC3A"
		d="M445 203.1c.4-5.5.8-11 1.2-16.7l1.2-1.2c.2.2.5.4.6.6 1.6 4.7 3 9.4 4.1 14.3.7 3.1 1.9 6.2 2.9 9.2 1.9 5.9 3.6 11.8 5.1 17.8 1.2 4.8 3.7 9.2 6.6 13.2 2.1 2.9 4.5 5.5 7.2 8.7v3.7c.9.6 1.6 1.1 2.6 1.7.3-.9.5-1.5.7-2.2 1.3.9 3.3.8 3.7 2.8-1 .1-2 .2-3.2.4.7 1.7 1.2 2.9 3.2 2.6 0-1.1 0-2 .1-3 2.9-.3 4.9 1.4 6.8 3.1 2.2-.3 4.4-1.9 6.7-.1 4.5 0 9 .1 13.4-.1 1 0 1.9-.7 3.2-1.2 0 2.9-2.3 3.5-3 4.8-4.8 1.8-9.2 3.5-14.6 5.5h-3.4v-3.3c-1.4-2.4-3.4-1.5-5-1.7v-2.1c-1.3.1-2.1.2-3 .3v1.8h-5c.3-1.3-.4-2.2-1.4-2.8-.7-.4-1.6-.4-1.6.8-1.7.1-3.4.2-4-2h2.8c.4-2-.8-2.5-2.2-3.2-.5.7-1.1 1.5-1.6 2.2-3.4-1.3-5.7-3.6-7-7 1.3-.4 2.3-1.1 1.8-3h-2.8c-.5-.3-1.4-.6-1.5-1-.4-2.4-2.2-3.9-3.1-6H455v-1c.3-.1.6-.2.8-.3-.3-.2-.6-.4-.8-.7v-5c.4-.9.7-1.8 1.2-3H452c-.4-1 .9-2.5-1-3v-2c-1.3-1.5-1-3.3-1-5 1.8-.7.9-1.9.6-3H448c0-.9.1-1.9 0-2.8-.1-.4-.6-.8-1-1.2v-1c.3-3.1-.1-6.2-2-8.9Z"
	/>
	<path
		fill="#F952E5"
		d="M30 121.9v-5.6c5.2-6.7 10.8-13.4 14.3-21.4999H47c.1-1.9-1.9-3.2-.2-5.4 1.6-2 2.1-4.9 5.1-5.7.7-.2 1.5-.6 2.2-.6 1.8-.1 3.6 0 5.9 0-1.8 3.5-5.3 5.2-7.1 8.4-1.7 3.1-4.5 5.5-5.2 9.6999 3.6-.4 3.6-2.8999 4.7-4.7999 1-.5 2.3-1.1 3.8-1.8-.3-.7-.6-1.3-.9-2.1.7-2.2 2.9-1 4.9-1.6-.2-1.1-.4-2.3-.6-3.5h3.8c.7-1.1 1.2-2 1.7-2.8 2.4-1 4.1.1 6.2 1.2-.5.8-1 1.6-1.5 2.3-1.2.1-2.4.1-3.3.2-.4.4-.8.6-.8.8-.6 3.3-3 5.8-4.7 8.5C58.4 101.5 56.2 105.6 54.8 110c-1.1 3.7-3.5 6.6-5.7 9.6-1.4 2-3.5 3.6-5.2 5.3-1.7 1.7-3.7 2.4-5.8 2.2-3-1.9-5.7-3.6-8.1-5.2Z"
	/>
	<path
		fill="#FDFDFD"
		d="M184 238.1c1-2.2 2.9-.4 4.5-1.2.7.9 1.4 1.8 2.5 3.2-.1-.4 0-.1 0 .2 0 5.7.1 11.3 0 17-.1 4.2 1.5 8.3 1.1 12.6-.4 4.1-.8 8.5.1 12.4.8 3.2-.2 6.7 1.7 9.7.3.5 0 1.3 0 2 .3 5.3-.6 10.7.9 16.1 1.1 3.8-1 7.6-.9 11.5.1 3.8.6 7.8-.2 11.4-.5 2.4-.1 5-1 7-.9 2.3-.6 4.4-.8 6.2-.5 1.1-.9 1.8-1.3 2.7-1.6 1.2-3.6 1.5-5.7 1.3.5-2.6.9-5.3 1.4-7.9.2-1.2.6-2.5.6-3.7-.1-4.7 1.8-9.3 1-14.1 1.9-3.9 1.4-8.2.8-12-1.4-9-.1-18.1-1-27-.4-4.2-.7-8.4-.9-12.6-.1-1.4-.7-2.7-.9-4.1-.3-1.4.6-3-1-4.1-.2-.1 0-.6 0-1v-1c0-4.2.1-8.3 0-12.5-.1-4.1-.6-8.1-.9-12.1ZM143.998 284.1c-.3 3.2-.8 6.3-1 9.5-.2 3.1.1 6.3-.1 9.4-.2 3.9 1.4 7.6 1.1 11.5-.3 3.8-.1 7.6-.1 11.4 0 4-.1 8 .1 11.9.1 1.8.8 3.7 1.2 5.5-1.4 1.3-2.6 2.4-4.1 3.9-.8-.3-2-.8-3.1-1.2v-58.9c0-3-.8-6-.9-9.1-.2-3.2-.1-6.3 0-9.5 0-1.1.4-2.1.7-3.9-1.3-2.5-1-5.9.3-9.2-.8-.3-1.3-.5-1.9-.8v-4.5c.5-.1 1-.2 1.7-.4V247l-2.4-.3c-1.1-3.7-1.8-7.5-1.2-11.7h3.5c.6.4 1.5 1.1 2.4 1.8v5c-1.6 1.8-1.6 2.1 1 4 .3 1.7.7 3.3 1 5h-3.1c.1 1.2.2 2.1.3 3h2.8c.4 1-.9 2.5 1 3v3c-.8-.4-1.6-.8-2.8-1.3v4.7c1.2-.6 2-1 2.8-1.3v7c-.7-.4-1.3-.7-2.3-1.2-.6.9-1.3 1.8-1.9 2.6 1.9 1.3 3 .1 4.2-.4v2c-.1 1.4.1 2.8 1 4v5c-1.6 1.2-1.6 2.2-.2 3.2Zm-.8-6.4c-.7-.6-1.5-1.2-2.2-1.8-1.8 1.1-2.6 2.2-1.7 4 1.8.5 3.1 0 3.9-2.2Zm-7.9-39.6v2.8h2.8c-.1-1.1-.2-2-.3-2.8h-2.5ZM125 53.1004v-1.5c1-.5 1.9-1 3.2-1.7 1.2.9 2.7 1.8 3.7 3.1.7.7.9 2 1 3 .5 6.4 3.4 11.9 5.9 17.5 2.2 4.8 5.9 8.1 9.7 11.4 2.4 2.1 5.3 3.5 7.6 5.7.9.9 2 1.5 3.1 2.1 3.4 1.8 6.9 3.5 10.3 5.3 4 2.0996 8.5 2.9996 12.9 3.8996 5.3 1.1 10.6 2.7 16.1 2 .5.8 1 1.4 1.4 2.1-1.1.6-5.7 2-6.9 2-5 0-10 .4-14.7-1.9-1.3-.7-3.3-.1-4.2-.1-3.3-1.5-5.9-3-8.6-3.8-5.3-1.5-9.8-4.1996-13.8-7.7996-1.3-1.2-2.7-2.2-4.2-3.2-1.4-1-2.1-2.8-4.1-3.3-1.1-.3-1.6-2.3-2.5-3.3-2-2.2-4.2-4.2-6.3-6.4-3.2-3.2-4.6-7.3-5.7-11.6-.4-1.7-1.1-3.2-1.1-5.1 0-1.7-1-3.2-1-5.1.1-1.1-.3-2.7-1.8-3.3ZM107.998 165.1c.4 1.9.3 3.9 1.1 5.5 2.7 5.3 4 11 5.9 16.5 1.8 5.1 3.9 10 6 15 .7 1.7 2 3.2 3 4.8 2 3.2 3.6 6.4 5.2 9.8 1 2.2 2.2 4.7 5.5 4.6.3 0 .7.7 1.2 1.1v5.4c-.6.4-1.2.8-1.9 1.3-2.3.5-3.4-1.7-4.9-2.6-4.5-2.8-7.5-7.1-9.9-11.7-3.5-6.9-7.1-13.7-9.8-20.9-2-5.6-5.2-11-5.5-17.2-2.6-5.1-3.1-10.9-5.3003-16.8 3.6003 1.9 6.5003 3.6 9.4003 5.2ZM354.001 262.1c-.7 2.3 1 4.3 1.1 6.6.1 2-.9 4.3.9 6.1-.7 3 1.1 5.7 1 8.6 0 .3.6.5 1 .8.4 1.8-.6 3.7.9 5.6.9 1.2-.5 3.4 1 5 .6.6.1 2.2.1 3.4h-2.1c.1 1.2.2 2.1.3 3h2.8c.4 1-.9 2.5 1 3v1c.1 3.3 1 6.3 2.8 8.3 0 .1.1.3.1.3-.2.3-.5.5-.8.8.7 3.3 2 6.7 3.1 9.9 1.2 3.4 2.7 6.8 4 10.2 1.3 3.2 3.8 6 4.8 9.6-.6 1.1-1.3 2.3-1.9 3.3-2.7 1.6-4.8-.5-7.1-.5-.2-1.2-.4-2.5-.6-3.8.1 0 .3-.1.6-.2h1.8c.1-1.2.1-2.4.2-3.8-.7-.1-1.1-.2-1.6-.3-.1-.2-.4-.5-.4-.7.4-1.9-.6-3.4-1.4-4.9-1.2-2.3-2.3-4.7-3.1-7.2-1.5-4.3-3.5-8.5-4.8-12.9-1.4-4.7-2.8-9.5-3.8-14.4-.8-4.1-1-8.3-2.7-12.3-.5-1.2.6-3 1-4.9-.8-.3-1.8-.6-2.1-.7v-5.6h2.5c.2-.6.3-1 .6-1.9-1.7-.1-3.3-.3-4.9-.4-.5-4.4-1-8.8-1.5-13.6 2.3-.6 4.6-.1 7.2-.4v3Z"
	/>
	<path
		fill="#FCFC3A"
		d="M67 107.1c2.1-.4 4.1.5 6.2 1.2 1.2-1.3 1.4-3.5 4-3.4 1.7.1 3.4-1.3 5.4-2.1.5 1.6 1.2 3 1.3 4.5.2 2.4 0 4.7 1.5 6.9.6.8.5 2.5.2 3.6-1.1 3.4-2 6.9-2.5 10.4-.3 2.1-1.4 2.6-3.3 3.3.3 1.2.7 2.4 1.1 3.9-1.2 4.6-4.1 8.6-7.3 12.6H70v-1.9c1.9-.5.6-2 1-3 1.9.1 2.9-.7 3-2.5-1.7-1.2-2.8 0-4 .5-1.5-.1-.8-1.2-1-2 .4-.8.8-1.5 1.4-2.7-1.3-.5-2.3-.9-3.4-1.3v-5c1.9.1 2.9-.7 3.1-3H67v-3h-2v-1c1.5-.1.8-1.2 1-2h3.1c-.1-1.2-.2-2.1-.3-3H66c.3-1.7.7-3.3 1-5 1.7.2 2.6-.7 3-2.2-.7-1.3-1.5-2.1-3-1.8v-2Zm6.8 19v-3.9c-2.1-.5-3.3.2-3.8 2.3.6.4 1.2.9 2.1 1.6h1.7Zm9.1-11.9h-3.8v2.7h3.8v-2.7Zm-5.1-5.2c-2.2.3-2.9 1.5-2.7 3.3 0 .3.3.5.4.6h2.4c-.1-1.4-.1-2.6-.1-3.9Zm-3.8 5.3h-2.8v2.8c1.1-.1 2-.2 2.8-.3v-2.5Zm-2.8 16.9v3c1.1-.1 2-.2 2.7-.2v-2.7c-1-.1-1.8-.1-2.7-.1Zm6.7 3.6c-1.9.5-3.1 1.1-2.9 3.1h2.9v-3.1Zm.1-16.5c-2-.5-2.7.5-3.1 2.5H78v-2.5Zm-.2 11.7v-2.9c-1 .1-1.9.1-3.3.2.9 1.6 1.2 3 3.3 2.7Z"
	/>
	<path
		fill="#FDFDFD"
		d="M477.001 262.1h5c.4.2.8.4 1.1.6.9.6 1.6.7 1.9-.6 1.6.2 3.6-.7 5 1.7v3.3c-.4.3-.9.9-1.3 1-3.2.1-6.3.2-9.5 0-1.5-.1-3-.7-5.2-1.2-.5-.7-1.5-1.8-2.5-3.1-.9.6-1.6 1-2.5 1.6-.6-.5-1.4-1.1-2.2-1.7.5-1 .9-2 1.5-3.2h-3c-.1.5-.3 1-.2.9l-6.6-6.6c.2-.2 1-.9 2.5-2.2-2.4-.2-4-.3-5.9-.5v-4.7c-1.1-.1-1.9-.2-2.8-.3-1.4-3.2-2.8-6.4-4.3-9.7 1-.1 1.8-.2 2.8-.3v-2.7c-1-.1-2.2-.2-3.3-.3-.8-2.9-1.6-5.7-2.6-8.9.7-.9 1.5-2 2.7-3.6-1.4-.2-2.3-.4-3.5-.6-.2-1.5-.3-3.2-1-4.8-1.4-3.2-1.4-3.4 0-6.6.8-1.9.8-3.7.9-5.6 0-.3.6-.5 1-.8 1.9 2.7 2.3 5.8 2 9h-2.8v3.1c1.1-.1 2-.2 2.8-.3v-1.8c.3.4.9.7 1 1.2.1.9 0 1.9 0 2.8-.2 1.6.4 2.6 2 3 0 1.7-.3 3.5 1 5h-2.8c-.1 3.2-.1 3.2 2.8 3.9v-1.9c1.9.5.6 2 1 3 .2 2.2.8 2.8 3 3v5h-2.8v3.7c1-1.4 2.5.2 2.8-1.7h1.5c.9 2.1 2.7 3.6 3.1 6 .1.4.9.7 1.5 1 .4 1-.9 2.5 1 3 1.3 3.4 3.6 5.7 7 7l1 1c.6 2.2 2.3 2.1 4 2 .1 1 .2 2 .3 3.4 1.1-.7 1.8-1.1 2.6-1.5ZM86.9984 100.1h4c0 .3-.1.8 0 1 2.2 2.9 3.4 6.1 4.2 9.7.7 3.5 2.2 6.7 2.9 10.2.4 1.9.9 3.7.9 5.6 2.1996 1.4.4 3.9 1.4996 5.8.9 1.5.4 3.8.5 5.7-2.8996-2.1-5.8996-4.2-8.7996-6.3-.8-4.6-1.6-9.2-2.3-13.6-.8 0-1.1-.1-1.4-.1-.1-.3-.4-.5-.4-.8-.1-1 0-2-.3-2.9-1.2-4-2-8-1.7-12.2 0-.8.6-1.4.9-2.1ZM69 139.1c.2.8-.5 1.9 1 2 .2.8-.5 1.9 1 2-.4 1 .9 2.5-1 3-.5-.7-1.1-1.5-2-2.7-.7 1.2-1.1 1.9-1.6 2.9-.9-.6-1.7-1.2-2.7-1.9.5-1.4.9-2.5 1.3-3.8-1.2-.6-2.4-1.1-3.7-1.8-.1-.2-.3-.4-.3-.7 0-3.1.4-6.4-.2-9.4-.4-2.2-1-4.3-.8-6.6.1-1 .6-2.1.9-3.2-1.5-2.6-1.5-5.3 0-8-.4-.8-.8-1.6-1.4-2.9 1.8 0 3.1.1 4.3 0 1-.1 2-.6 3.1-1v2c-.4.7-.7 1.3-1.1 2 .4.7.7 1.3 1.1 2-.3 1.7-.7 3.3-1 5v3c-.2.8.5 1.9-1 2-.7-1.8-1.9-.9-3-.6-.1 2 .3 3.5 3 3.6v-2h2v3c-1.4.2-1.2 1-.6 1.9.2.4.4.7.6 1.1v5c-.4.8-.8 1.5-1.4 2.7 1.4.6 2.5 1 3.5 1.4Zm-4.1-7.9h-3c.1 1.1.2 2 .2 2.7h2.7c.1-.9.1-1.7.1-2.7Zm.2-17.3c-1.4.3-2.3.4-3.9.7 1.4 1.3 2.2 2.1 3.6 3.4.1-1.8.2-2.7.3-4.1Z"
	/>
	<path
		fill="#F952E5"
		d="M113.998 147.1h5c-.7 1-1.4 2.1-2.2 3.2.6.8 1.2 1.6 1.7 2.3 2.9-2.6 2.9-2.6 1.5-5.5 3.3-.3 6.7-.7 10-1-.7 1.9-3.6.3-4 2.6v3.4h-4.1c.1 1.5.1 2.6.2 3.7 0 .1.2.2.3.3h3.5v2.6c1 3 2.6 2.3 4 2.4v3c-.4.3-.7.9-1.2 1-.9.1-1.9 0-2.8 0-.3-3.6-.3-3.6-3.6-3.8-.5 1.3-1 2.6-1.4 3.8-.9 0-1.9.1-2.8 0-.4-.1-.8-.6-1.2-1-.5-3 2.8-2.7 4-4.6 0-.9-.1-2.2-.2-3.4h-3.8c-.3-3.7-.3-3.7-4-3.8v3.8h-2.6c-2.9-1-2.3-2.6-2.4-4 1.9.3 3.5-.6 4.6-1.3.7-1.6 1.1-2.6 1.5-3.7Z"
	/>
	<path
		fill="#F952E5"
		d="M96.9995 152.1c-.4-1.3-.9-2.6-1.3-3.8-.2-.7-.4-1.4-.7-2.2 2.2-.9 2.5 2.5 4.8 1.9v-4.9h-3.6c-.2-1.6-.3-2.8-.4-4h-1.8c-1.8-.7-.9-1.9-.5-3.4.9.7 1.8 1.1 2.4 1.8 1.6 2.2 4.3005 3.1 5.6005 5.5h1.9c.5.7 1.1 1.3 1.6 2v2h4c-.3 1.7-.7 3.3-1 5h-2.9v3.8c3.2.2 3.5 3.3 5.2 5 .9.2 1.9.3 2.7.5v1.7h-3.6c-.5-.6-1.2-1.4-1.7-2h-2.1c-.5-.7-1.1-1.3-1.6-2v-4c-1.1 1.8-2.7 0-3 2h-1.0005v-5c-1.1.1-2.1.1-3 .1Zm4.6005-4.4c-.5 3.1-.5 3.1 2 4.4 1.1-2 .2-3.2-2-4.4ZM141 143.1c.1-1.5 1.2-.8 2-1 1.2.5 2.3 1.7 3.9.6.3-1.1.7-2.4 1.1-3.6.5 0 1.2.2 1.4 0 1.8-2 4.4-2.7 6.6-4 .5 1.4.9 2.7 1.3 4h2.7v4h-4c.1-1.8.2-3.7-2.3-4-1.5 1.1-2.4 2.2-1.2 4h3.5v4c-.7.2-1.4.5-2.2.7-.6.2-1.2.2-1.8.3 0-1.5.3-3-1.7-4-.9.1-2.1.1-3.3.2v2.8c-3.2-.5-4.2 1.3-4.2 3.7-1.5.7-2.5 1.2-3.5 1.6-.6 1.3-1.1 2.5-1.7 3.7H135c-.2-.7-.5-1.4-.7-2.2-.2-.6-.2-1.2-.3-1.8 1.2-.5 2.5-.9 4-1.5.3-1 .7-2.2 1-3.5h2.6c1.1-1.8-.1-2.8-.6-4Z"
	/>
	<path
		fill="#FCFC3A"
		d="M160 143.1v-4h2.9c.3-.8.7-1.8 1.1-2.8.2-.4.3-.8.4-1.2h3.1c1.9-2.4 1.9-2.4.2-4.8-1.1-.9-3 .9-3.7-1.2.5-2.2 2.9-2.6 4.1-4.2 1.2-1.6 3-2.7 4.8-4.3v-3.4c1.4-.1 2.6-.2 4.4-.3-.4-1.2-.8-2.2-1-3.2-.2-1-1-2.3.8-2.7.4 2.3 2.7 1.6 4 2.4v4.6c-1.7-.1-3.4-.2-4 2v1.8c-1.6.2-2.8.3-4.2.4v3.4c-.9.8-2.6-.6-2.8 1.3-.9.1-2.1-.5-2 1.7 1.2.4 2.6.9 4 1.3 2.1.8.6 2.5.9 3.7-1.4.9-2.7 1.8-3.9 2.6v2.7h-4c-.6 1.5-1 2.8-1.5 4-1.3.2-2.4.2-3.6.2ZM366.998 343.1c-.3.1-.5.2-.6.2.2 1.3.4 2.5.6 3.8-.7.2-1.7.3-2.2.7-2.2 2-4.2 4.2-6.4 6.5-1.2-.6-2.3-1.1-3.6-1.8.8-1.4 1-2.9 2.9-3.8 1.6-.8 2.5-3.1 4.1-5.2-1.6-.2-2.5-.3-3-.4-1.1 1.5-2.1 2.8-2.9 3.9h-2.8c1.7-3.8 4.3-6.3 8.2-8 1.8 1.2 3.8 2.7 5.7 4.1Z"
	/>
	<path
		fill="#F952E5"
		d="M169 139.1v-2.7c1.2-.8 2.5-1.7 3.9-2.6-.4-1.3 1.2-2.9-.9-3.7.3-.5.6-1 1-1.9-1-.4-2-.7-3-1.1.2-1.9 1.9-.5 2.8-1.3v-3.4c1.4-.1 2.6-.3 4.2-.4v-1.8c1.7.3 3.3.7 5 1l1 1-1 1c-1 .1-1.9-.1-2.5-1-.1-.2-.8.1-1.4.2v2.4c1 .4 1.8.8 2.4 1.1.7-.3 1.1-.5 1.5-.7 2.1.8.6 2.5.9 3.8-.6.1-1 .2-1.6.2l-.7-2.1c-.8 0-1.7.1-3 .1.6 1.2 1 2.1 1.4 2.9-.3.2-1 .5-.9.7.2 1.1.6 2.2.9 3.3l-1 1c-.9-.2-1.7-.5-2.8-.7-1.1 1.2-2.2 2.7-2.2 4.7h-4Zm6.5-7.1c2.4-1.6 1.1-3.8 1.6-6-1.3.1-2.2.1-3.2.2.3 2.1-.7 4.2 1.6 5.8Z"
	/>
	<path
		fill="#FDFDFD"
		d="M63.9977 98.0996c.7.4 4.6 1.5 5 1.5 1.4-.2 2.8-.2 4.2-.5 1.2-.2 2.3-.7 3.5-.9.4-.1.8.6 1.2.9V101.7c-5.7 2.5-11.3 5.7-18.3 2.8 1.8-2.1 1.6-5.1004 4.4-6.4004Z"
	/>
	<path
		fill="#F952E5"
		d="M151 157c-.4.7-.9 1.4-1.4 2H147c-.4-2.8-.7-3-4-3v-2.9c1.8-.9 3.4-1.8 5-2.6-.3-1.2-.7-2.3-1-3.5 1.7 0 3.5-.3 5 1v4h4v3.5c-1.7.6-3.3 1.1-5 1.5-.1-1.6-.1-3.1-.1-4.8h-2.8v3.4c1 .6 2 1 2.9 1.4Z"
	/>
	<path
		fill="#FCFC3A"
		d="M146.998 147.1c.3 1.2.7 2.3 1 3.5-1.6.8-3.2 1.7-5 2.6v2.9h-3.9c0 2.7-1.1 4.1-3.3 5.1-.8.3-1.3 1.3-1.9 1.9-.4.3-.7.9-1.2 1-.9.1-1.9 0-2.8 0v-3h2.5l2.5-2.5v-2.5h2.6c.5-1.2 1.1-2.4 1.7-3.7 1-.5 2.1-1 3.5-1.6.1-2.5 1.1-4.3 4.3-3.7ZM112.998 163.1v-1.7c-.9-.2-1.8-.3-2.7-.5-1.7-1.7-2-4.8-5.2-5v-3.8h2.9c.1 1.4-.5 3 2.4 4h2.6v2.6c1.1.5 2.4 1 4 1.7v-4.3h3.8c.1 1.2.1 2.4.2 3.4-1.2 2-4.5 1.6-4 4.6-.9 0-1.9.1-2.8 0-.4-.1-.8-.7-1.2-1Z"
	/>
	<path
		fill="#FCFC3A"
		d="m134 152.1.3 1.8c.2.7.4 1.5.7 2.2h-5c-.1-3.8-.2-3.9-4-4v-3.4c.4-2.3 3.3-.7 4-2.6l1.8-.3c.7-.2 1.5-.4 2.2-.7v1.8c-1.1.1-1.9.2-2.7.3-.5 1.2-1 2.3-1.4 3.3.6.7 1.1 1.1 1.6 1.6h2.5Z"
	/>
	<path
		fill="#F952E5"
		d="M160 143.1h3.5c.5-1.2.9-2.5 1.5-4h4v3.6c-1.5.7-2.7 1.2-3.9 1.8.1 1-1 2.3.9 2.6-.1 1.5-1.2.8-2 1h-3c-.3-1.8-.7-3.4-1-5ZM181 118.1v-4.6c-1.3-.8-3.6-.1-4-2.4v-1.4c1.9-2.1 3.3 1 5 .4.7 3.1.8 3.1 4 2.5v-1.5h4.4c.3 1 3.4 1.4.6 3-1.7-1.3-3.3-1.3-5 0h-4.1c.1 1.2.2 2.1.2 3h1.8c-.3.3-.5.7-.8 1-.4.4-.8.7-1.2 1-.2-.4-.6-.7-.9-1ZM164 129.1c.7 2.1 2.6.4 3.7 1.2 1.7 2.3 1.7 2.3-.2 4.8h-3.1c-.1.4-.3.8-.4 1.2-.4 1-.8 2-1.1 2.8H160v-4h2.5c1.3-1.1 2.4-2.2 1-4H162c.7-.7 1.3-1.4 2-2ZM133.998 152.1h-2.5l-1.6-1.6c.4-1 .9-2.1 1.4-3.3.8-.1 1.5-.2 2.7-.3v-1.8c1.2-.9 2.6-1.1 4-1 1.9.5.6 2 1 3-.7.3-1.3.8-2 1-2.8.8-2.8.8-3 4ZM134 163.1c.6-.7 1.1-1.6 1.9-1.9 2.1-.9 3.3-2.4 3.3-5.1h3.9v5h-3.7l-.5 2H134Z"
	/>
	<path
		fill="#FDFDFD"
		d="M93.9976 139.1h1.8c.1 1.2.2 2.4.4 4h3.6v4.9c-2.2.6-2.6-2.8-4.8-1.9-.3-1.2-.8-2.3-1-3.5-.1-1.2 0-2.4 0-3.5ZM438.999 217.1c-.2-2.7.3-5.4-.9-8.1-.8-2 .6-4.3 1.7-6.1.3-.5 1.4-.5 2.1-.7-.9 4.6-2.1 9.1-2 13.8.1.2-.6.7-.9 1.1Z"
	/>
	<path
		fill="#FCFC3A"
		d="M165.998 147.1c-1.9-.3-.8-1.7-.9-2.6 1.2-.5 2.4-1.1 3.9-1.8v-3.6h4v2.5c-2.3 1.8-4.7 3.6-7 5.5ZM160 143.1c.3 1.6.6 3.2 1 5h3l-3 3c-.5-1.2-.9-2.5-1.5-4H156v-4h4ZM108 152.1c.3-1.7.7-3.3 1-5l2.1-.6c1.1-.4 2.3-1.2 2.9.6-.4 1.1-.9 2.2-1.4 3.7-1.1.6-2.7 1.6-4.6 1.3Z"
	/>
	<path fill="#F952E5" d="M156 147.1h3.5c.6 1.5 1 2.8 1.5 4l-1 1h-4v-5Z" />
	<path
		fill="#FCFC3A"
		d="M181.998 119.1c.4-.3.9-.6 1.2-1 .3-.3.5-.7.8-1h1c.3 1.1.6 2.2 1 3.3.1.3.6.5 1 .7.2.4.4.8.7 1.6l-1.2 2.4c-.7-1.6-1.3-3.3-3.6-3l-1-1c.1-.7.1-1.4.1-2ZM143 161.1v-5c3.3 0 3.6.2 4 3-1 1.3-2.3 2-4 2ZM121 165.1c.5-1.3.9-2.5 1.4-3.8 3.3.2 3.3.2 3.6 3.8h-5ZM186 114.1c1.7-1.3 3.3-1.3 5 0v3h-3.3c-.8-.9-1.2-1.5-1.7-2v-1ZM162 131.1h1.5c1.4 1.8.2 2.9-1 4H160c-.2-.8.5-1.9-1-2 .4-1.6 1.5-2.2 3-2ZM173 139.1c0-2 1.1-3.6 2.2-4.7 1 .3 1.9.5 2.8.7.3 2.1-1.6 2.8-2.6 4H173Z"
	/>
	<path
		fill="#FDFDFD"
		d="M37.1001 93.5996c1.6.6 2.8 1.1 4.3 1.7-.8 1.5-1.3 2.7-2.1 4.3-1.5-1.7-2.5-3-2.2-6Z"
	/>
	<path
		fill="#FCFC3A"
		d="M120.001 147.1c1.4 2.9 1.4 2.9-1.5 5.5-.5-.7-1.1-1.5-1.7-2.3.8-1.1 1.5-2.2 2.2-3.2h1Z"
	/>
	<path
		fill="#F952E5"
		d="M186 115.1c.4.5.9 1.1 1.7 2h3.3v1.7c-1.2-.2-2.4-.5-4-.8v3.2c-.3-.2-.8-.4-1-.7-.4-1.1-.7-2.2-1-3.3.3-.8.7-1.5 1-2.1Z"
	/>
	<path
		fill="#FCFC3A"
		d="M139 147.1c-.4-1 .9-2.5-1-3 .5-1.9 2-.6 3-1 .5 1.2 1.7 2.3.6 4H139ZM181.998 125.1c-.4.2-.8.401-1.5.701-.6-.3-1.4-.701-2.4-1.101v-2.399c.5-.1 1.2-.301 1.4-.201.7.9 1.5 1.1 2.5 1v2Z"
	/>
	<path
		fill="#FDFDFD"
		d="M186 111.1v1.5c-3.2.6-3.3.6-4-2.5.9 0 1.9-.1 2.8 0 .5.1.8.6 1.2 1ZM97 152.1h3v5c-2.3-.9-2.6-3-3-5Z"
	/>
	<path
		fill="#FCFC3A"
		d="M148 139.1c-.4 1.3-.7 2.5-1.1 3.6-1.7 1.1-2.7-.1-3.9-.6 1.2-1.8 3.4-1.9 5-3ZM178.998 134.1c-.3-1.1-.7-2.2-.9-3.3 0-.2.6-.4.9-.7.7 2.5 1.8.1 3 .3-.1 2-1.4 2.9-3 3.7Z"
	/>
	<path
		fill="#FDFDFD"
		d="M101 157.1c.3-2.1 1.9-.2 3-2v4c-1.5.1-2.6-.5-3-2Z"
	/>
	<path fill="#FCFC3A" d="M156 152.1h4c-.5 2.1-2.7 2-4 3v-3Z" />
	<path
		fill="#F952E5"
		d="M159 133.1c1.5.1.8 1.2 1 2h-4c.4-1.6 1.5-2.2 3-2Z"
	/>
	<path
		fill="#FCFC3A"
		d="M109 147.1h-4v-2c1.7-.1 3 .7 4 2ZM402 347.8c-.6.1-1.3.1-1.9.2 0-.2-.1-.4-.1-.6.7-.1 1.3-.3 2-.4v.8ZM78.8984 88.0002c.2-.3.5-.5.7-.8l.3.3c-.3.2-.5.5-.8.7-.1-.1-.1-.2-.2-.2Z"
	/>
	<path
		fill="#1A1A10"
		d="M429.898 318.9c-3.4-.2-3.4-.2-3.8-3.6h3.8v3.6ZM425.799 305.9h-3.6v-3.5c3.4-.2 3.5-.1 3.6 3.5ZM425.598 298.2h4.2v4.2c-1.2-.4-2.4-.6-3.1-1.2-.5-.6-.6-1.7-1.1-3ZM426.199 352.8c.1-3.2.1-3.2 3.3-3.7.7 4 .7 4-3.3 3.7ZM212.199 124.9c-1.2.5-2.5.9-4 1.5v-4.2c2.2-.5 3.5.2 4 2.7ZM212.399 321.7c-1.4.7-2.6 1.2-4.2 2v-4.3c1.8-.8 3-.2 4.2 2.3ZM215.898 129.8c-2.1.9-3-.3-4-1.4.5-2 1.7-2.5 3.7-2.3.9 1.1.3 2.5.3 3.7ZM203 117h-3.6c-.9-1.9-.1-3 1.3-4 2 .5 2.6 1.8 2.3 4ZM354.098 246v-3.6c1.8-1 3-.2 3.9 1.4-.4 1.9-1.6 2.5-3.9 2.2ZM215.798 298.2c.5 2 .1 3.3-1.8 3.9-1.9-.7-2.3-2-1.9-3.9h3.7ZM424.499 292.4c.8 1.7 1.3 2.8 2.1 4.4h-4.3c-.9-1.7 0-2.9 2.2-4.4ZM215.799 283.9h-3.5c-1-2.1.3-3 1.4-4 2.2.7 2.6 2 2.1 4ZM423.498 272.7c-.8-1.7-1.3-2.8-2.1-4.4h4.3c.9 1.8 0 2.9-2.2 4.4ZM339.8 242.2c.5 2 0 3.2-2.4 4.1-.4-.5-.9-1.3-1.4-2 .5-1.9 1.6-2.6 3.8-2.1ZM275.5 243.5c.8-.5 1.4-1.1 2.1-1.4.6-.2 1.3 0 2 0 1.1 1.9.3 3.2-2.1 4.4-.5-.7-1-1.4-2-3ZM426.3 336.1c-.6-2.1-.1-3.4 2.4-4.3.4.5.9 1.3 1.6 2.3-.6.7-1.2 1.4-1.7 2h-2.3ZM212.3 310c-.6-2.1-.1-3.3 2.4-4.3.3.6.8 1.3 1.4 2.2-.5 1.8-1.7 2.4-3.8 2.1ZM202.8 131.2c.5 2 0 3.2-2.4 4.1-.4-.5-.9-1.3-1.4-2 .5-1.9 1.6-2.6 3.8-2.1ZM427.701 288.9c2.1.8 2.6 2.1 2.2 3.9-1.8.9-3 .2-4.1-1.7.6-.8 1.3-1.5 1.9-2.2ZM217.701 258.9c2.1.8 2.7 2.1 2.1 3.9-1.8.8-2.9.1-4-1.7.6-.8 1.3-1.5 1.9-2.2ZM318.898 250.1h-2c-.8-.6-1.4-1.1-2.3-1.8.7-.8 1.3-1.5 1.9-2.3 2.3.4 2.7 1.8 2.4 4.1ZM197.098 126.3c.8.5 1.5.9 2.1 1.2-.5 2.3-1.8 2.8-3.6 2.5-.5-2.6-.5-2.6 1.5-3.7ZM257.5 245.7c.2.9.5 1.9.7 2.9.3 1.2-.9 1.8-2.8 1.5-1-2-.2-3.2 2.1-4.4ZM236.901 245.9c-2 .5-3.2 0-4.1-2.4.5-.4 1.3-.9 2-1.4 1.9.4 2.6 1.6 2.1 3.8ZM212.497 115.6c-1.5.7-2.6 1.3-3.8 1.9-1.3-2.4-.5-3.6 1.9-4.8.4.6.9 1.4 1.9 2.9ZM221.698 117.7c1.2.6 2.4 1.2 3.9 1.9-1 1.2-1.6 2-2.3 2.8-2.1-1.2-3-2.4-1.6-4.7ZM216.598 118.4c-.7 1.5-1.3 2.7-2.1 4.2-1.1-.9-1.8-1.5-2.6-2.1.5-2.1 1.7-2.8 4.7-2.1ZM198.898 118.2v2.7h-3.8v-2.7h3.8ZM431.098 322.9v-3.7h2.8c.1 1 .1 2.2.2 3.7h-3ZM433.898 302.2v3.7h-2.8c-.1-1-.1-2.2-.2-3.7h3ZM421.098 286.9c1.1-.9 1.8-1.5 2.8-2.3.9.8 1.6 1.4 2.5 2.3-.7.8-1.3 1.6-2.1 2.5-.9-.7-1.7-1.4-3.2-2.5ZM424.098 275.5c.9 1 1.5 1.6 2.2 2.4-.6.8-1.2 1.5-2 2.5-.9-.7-1.7-1.3-2.9-2.2 1-.9 1.6-1.6 2.7-2.7ZM322.798 254h-3.7v-2.8c1-.1 2.2-.1 3.7-.2v3ZM353.599 248.1c-1 .9-1.6 1.5-2.4 2.2-.8-.6-1.5-1.2-2.5-2 .7-.9 1.3-1.7 2.2-2.9.9 1 1.6 1.7 2.7 2.7ZM363.799 241.6c1.2 1 1.8 1.5 2.7 2.1-.8 1-1.4 1.7-2.2 2.6-.8-.6-1.6-1.2-2.6-1.9.7-.9 1.3-1.7 2.1-2.8ZM211.301 111c1-1.1 1.6-1.7 2.8-3 .9 1.3 1.5 2 2.2 3.1-.7.8-1.3 1.4-2.1 2.4-.8-.8-1.5-1.3-2.9-2.5ZM349.399 243.9c-1 1.2-1.5 1.8-2.1 2.7-1-.8-1.7-1.4-2.6-2.2.6-.8 1.2-1.6 1.9-2.6.9.6 1.8 1.3 2.8 2.1ZM306.898 244.2c-1.1.9-1.8 1.5-2.8 2.3-.9-.8-1.6-1.4-2.5-2.3.7-.8 1.3-1.6 2.1-2.5.9.8 1.8 1.4 3.2 2.5ZM252.799 241.6c1.2 1 1.8 1.5 2.7 2.1-.8 1-1.4 1.7-2.2 2.6-.8-.6-1.6-1.2-2.6-1.9.7-.9 1.3-1.7 2.1-2.8ZM238.098 241v-2.8h3.9c-.1 2.5-1.5 3-3.9 2.8ZM259.4 240.9h-4.2c-.1-.7-.1-1.6-.2-2.6 2.2-.7 3.4.1 4.4 2.6ZM200.301 352.9c2.5.5 3.1 1.8 2.5 4h-2.5v-4ZM431.199 349.2v-4.3c1.1.2 2.6.3 2.7.7.5 1.8-.2 3.1-2.7 3.6ZM208.101 328.2h2.7v4c-2.3-.3-3-1.6-2.7-4ZM430.198 326.9h-4.3c.2-1.1.3-2.6.7-2.7 1.7-.5 3 .2 3.6 2.7ZM425.898 307.6c.4-.2.6-.5.9-.5 1-.1 1.9 0 3 0v2.6c-.1.1-.3.4-.6.4-1.8.1-3-.5-3.3-2.5ZM431.301 242.1h2.2c.5 2.7.5 2.7-2.2 4.1v-4.1ZM217.199 126.6v-4.3c.7-.1 1.6-.1 2.5-.2.9 2.2-.1 3.3-2.5 4.5ZM217.2 289.2c-.1-1.3-.1-2.6-.2-4h2.6c0 .1.4.3.4.5.2 1.9-.5 3.1-2.8 3.5ZM324 249.9v-3c0-.3.3-.5.5-.9 2.2.4 2.8 1.7 2.3 3.9H324ZM425.898 283.7c.5-2.3 1.8-2.9 3.6-2.7.6 3.1.6 3.1-3.6 2.7ZM429.501 267.1h-2.2V263c2.6 1.3 2.6 1.3 2.2 4.1ZM293 247.4v2.4h-3.8c0-.4-.3-1-.1-1.2.9-1.2 1.9-2.2 3.9-1.2ZM285 254v-2.6h4.1c-.3 2.5-1.8 2.9-4.1 2.6ZM332 238.6c2.7-.5 2.7-.5 4 1.9-2.7.5-2.7.5-4-1.9ZM207.1 336.6c-1.2-.6-1.7-.7-2-1-.5-.4-.9-.8-1.6-1.6 1-.9 1.8-1.6 3.2-2.8.1 2.1.2 3.4.4 5.4ZM300.8 245.2v5.4c-1.2-.9-2.1-1.5-3.3-2.3 1.1-1 1.9-1.8 3.3-3.1ZM360.9 244.9v5.5c-1.2-.7-2.1-1.2-3.4-1.9 1-1.1 1.7-1.9 3.4-3.6ZM220.7 278c-1.2 1-1.9 1.6-3.3 2.8-.2-2-.3-3.3-.4-5.5 1.5 1.2 2.4 1.8 3.7 2.7ZM213.301 276.9v-5.3c1.2.8 2 1.4 3.2 2.3-1 .9-1.8 1.7-3.2 3ZM425.1 263.6c-1.3-.6-1.7-.7-2-1-.5-.4-.9-.8-1.6-1.6 1-.9 1.8-1.5 3.2-2.7.1 2 .2 3.3.4 5.3ZM248.101 250.7c-1-1.2-1.6-1.9-2.8-3.3 2-.2 3.3-.3 5.5-.4-1.2 1.5-1.8 2.4-2.7 3.7ZM305.798 254h-2.7v-2.7c.7-.1 1.6-.1 2.7-.2v2.9ZM275.698 241.1h-2.5c-.1-.9-.2-1.7-.3-2.8h2.8v2.8ZM324 240.8v-2.5c.9-.1 1.7-.2 2.8-.3v2.8H324ZM418.098 266.9v-2.7h2.7c.1.7.1 1.6.2 2.7h-2.9ZM206.999 341.3v2.5c-.9.1-1.7.2-2.8.3v-2.8h2.8ZM433.899 271h-2.7v-2.7c.7-.1 1.6-.1 2.7-.2v2.9ZM433.698 340.1h-2.5c-.1-.9-.2-1.7-.3-2.8h2.8v2.8ZM204.199 127.2h2.7v2.7c-.7.1-1.6.1-2.7.2v-2.9ZM217.098 253.9v-2.7h2.7c.1.7.1 1.6.2 2.7h-2.9ZM334.9 247.2v2.7h-2.7c-.1-.7-.1-1.6-.2-2.7h2.9ZM219.899 117h-2.7v-2.7c.7-.1 1.6-.1 2.7-.2v2.9ZM431 330.8v-2.5c.9-.1 1.7-.2 2.8-.3v2.8H431ZM204.098 120.9v-2.7h2.7c.1.7.1 1.6.2 2.7h-2.9ZM219.901 105.2v2.8h-2.6v-2.8h2.6ZM431.098 279.9v-2.7h2.7c.1.7.1 1.6.2 2.7h-2.9ZM294.199 242.2h2.7v2.7c-.7.1-1.6.1-2.7.2v-2.9ZM268.199 251.2h2.7v2.7c-.7.1-1.6.1-2.7.2v-2.9ZM433.999 311.3v2.5c-.9.1-1.7.2-2.8.3v-2.8h2.8ZM311.301 251.1h2.5c.1.9.2 1.7.3 2.8h-2.8v-2.8ZM296.698 254.1h-2.5c-.1-.9-.2-1.7-.3-2.8h2.8v2.8ZM191.301 131.1h2.5c.1.9.2 1.7.3 2.8h-2.8v-2.8ZM208.098 313.9v-2.7h2.7c.1.7.1 1.6.2 2.7h-2.9ZM279.999 251.3v2.5c-.9.1-1.7.2-2.8.3v-2.8h2.8ZM431 296.8v-2.5c.9-.1 1.7-.2 2.8-.3v2.8H431ZM219.698 134.1h-2.5c-.1-.9-.2-1.7-.3-2.8h2.8v2.8ZM208.199 131.2h2.7v2.7c-.7.1-1.6.1-2.7.2v-2.9ZM373.801 241.8c.1 1.1.2 2 .3 3.1h-3c-.3-2 .9-2.5 2.7-3.1ZM276.298 248.4c-.8.7-1.6 1.3-2.8 2.4-.3-1.4-.4-2.3-.6-3.4h3.2c0 .3.1.6.2 1ZM417.598 350.2h3.3c.1.7.1 1.6.2 2.8-2 .3-2.6-.9-3.5-2.8ZM217.199 267.2c1.4 1.1 2 1.5 2.5 2.1.3.3.3.8.5 1.6-1.1.1-2 .1-3 .2v-3.9ZM427.3 344.6c-.1-1.3-.2-2.2-.3-3.3h2.9c.4 2-1 2.4-2.6 3.3ZM23.4977 67.0999c-7.7 0-10.3-2.3-12.4-11.1 2.9-5.3 8.5-5.6 13.3-6.8 4.1-1 7.7 1.9 11.6 3.9.2 2.9 0 5.4-3.1 7-2.2 1.2-4 3.1-6 4.7-1.2.8-2.2 1.4-3.4 2.3ZM101.398 30.2002h5.2c1.4 1.8 1.9 4 1.3 5.9-.7 2.2-1 4.7-4 6.1-.7-.3-2-.5-3-1.2-.8-.5-1.3002-1.6-1.9002-2.4-.1-3-.3-6.1 2.4002-8.4ZM83.2984 26.0997c1.7.1 3.4-.8 4.6 1.8v5.8c-1 1.4-2.2 3-3.1 4.2-2.7.7-3.5-1.2-4.9-2.5 1-2.9.9-6.3 3.4-9.3ZM165.098 117v-3.6c1.8-1 3-.2 3.9 1.4-.4 1.9-1.6 2.5-3.9 2.2ZM156.701 111.6c-1.7.8-2.8 1.3-4.4 2.1v-4.3c1.7-.9 2.8 0 4.4 2.2ZM84.5008 96.5c-.2-.9-.4-1.9-.7-3 .5-1.1.5-1.1 2.7-1.5 1.2 2 .4 3.2-2 4.5ZM92.6976 91.7002c1.2.6 2.4 1.2 3.9 1.9-1 1.2-1.6 2-2.3 2.8-2.1-1.2-3-2.4-1.6-4.7ZM135.097 92.2002c2.4.1 2.4.1 4.4 2.4-.7.5-1.5 1-2.3 1.5-1.8-.4-2.5-1.7-2.1-3.9ZM141.501 95.5996c.5.7 1.1 1.4 1.6 2.1-1.5 2.1-1.5 2.1-3.7 2.3-1.1-1.9-.2-3.1 2.1-4.4ZM101.901 96.7002c-.9-1.1-1.4-1.7-2.1002-2.6.5002-.6 1.1002-1.4 1.8002-2.4.9.7 1.7 1.3 2.9 2.2-.9 1-1.5 1.7-2.6 2.8ZM99.8008 90.8002h-4c.4-2.5 1.8-3 4-2.7v2.7ZM75.4983 92.0996h2.2v4.1c-2.6-1.4-2.6-1.4-2.2-4.1ZM161.199 113.4v-4.2c.7-.1 1.6-.1 2.6-.2.7 2.3 0 3.5-2.6 4.4ZM160.198 114.2c-.7 2.5-1.9 3.2-4.1 2.7-.1-.7-.1-1.6-.2-2.7h4.3ZM88.1992 88.2002h2.7v2.7c-.7.1-1.6.1-2.7.2v-2.9ZM91 100.1h-3v-2.8c.9-.1 1.8-.2 3-.3v3.1ZM150.798 108h-2.7v-2.7c.7-.1 1.6-.1 2.7-.2v2.9ZM107.9 88.2002v2.7h-2.7c-.1-.7-.1-1.6-.2-2.7h2.9ZM161.301 118.1h2.5c.1.9.2 1.7.3 2.8h-2.8v-2.8ZM143.801 101c1.5.1 2.3.2 4.1.3-1.3 1.4-2 2.2-3.3 3.6-.4-1.6-.5-2.4-.8-3.9ZM134.299 90.9998h-3.1v-2.9c2-.2 2.6 1 3.1 2.9ZM144 276.1c-.9-1.2-1.1-2.6-1-4h2.1c.8.6 1.4 1.1 2 1.5-.5 1.8-1.3 2.7-3.1 2.5ZM143 267.1v-3c.7-.4 1.3-.7 2.6-1.4.5.6 1 1.4 1.7 2.3-.6.7-1.2 1.4-1.7 2-1 .1-1.8.1-2.6.1ZM148.198 262.9c-.6-2.3.1-3.5 2.6-4v4h-2.6ZM141 246.1c-2.6-1.9-2.6-2.2-1-4h1.8c.1 1.4 1 2.8-.8 4ZM143.999 284.1c-1.4-1-1.4-2 0-3 1.8-.3 2.5.8 3.4 2.6-1.4.2-2.4.3-3.4.4ZM152.101 272.2h2.7v4c-2.3-.3-3-1.6-2.7-4ZM143 258.1v-1c.5-.7 1.1-1.5 1.6-2.2 1.4.7 2.6 1.2 2.2 3.2H143ZM142.999 262.1c-.8.4-1.6.8-2.8 1.3v-4.7c1.1.6 1.9 1 2.8 1.3v2.1ZM158 263.8c-1-1.4-1.6-2.3-2.5-3.5h5.1c-.9 1.3-1.5 2.1-2.6 3.5ZM164.7 274c-1.2 1-1.9 1.6-3.3 2.8-.2-2-.3-3.3-.4-5.5 1.5 1.2 2.4 1.8 3.7 2.7ZM163.999 281.3v2.5c-.9.1-1.7.2-2.8.3v-2.8h2.8ZM152 266.8v-2.5c.9-.1 1.7-.2 2.8-.3v2.8H152ZM143.001 270.1c-1.2.5-2.3 1.7-4.2.4.6-.9 1.3-1.8 1.9-2.6 1 .5 1.7.9 2.3 1.2v1ZM150.798 271h-2.7v-2.7c.7-.1 1.6-.1 2.7-.2v2.9ZM148.199 251.2h2.7v2.7c-.7.1-1.6.1-2.7.2v-2.9ZM152.199 281.2h2.7v2.7c-.7.1-1.6.1-2.7.2v-2.9ZM154.899 258h-2.7v-2.7c.7-.1 1.6-.1 2.7-.2v2.9ZM150.9 294.2v2.7h-2.7c-.1-.7-.1-1.6-.2-2.7h2.9ZM141.998 254.1h-2.8c-.1-.9-.2-1.8-.3-3h3.1v3ZM155.199 301.1c-1.5-.1-2.3-.2-4-.3 1.3-1.4 2.1-2.2 3.4-3.6.2 1.7.4 2.5.6 3.9ZM160.9 294.2c-1.1 1.4-1.5 2-2.1 2.5-.3.3-.8.3-1.6.5-.1-1.1-.1-2-.2-3h3.9ZM151.5 287.9h-3.3c-.1-.7-.1-1.6-.2-2.8 2-.2 2.6.9 3.5 2.8ZM144.199 251v-3.7c.7-.1 1.6-.1 2.6-.2.7 2.1-.9 2.4-2.6 3.9ZM155.1 246.8c-.1 1.5-.2 2.4-.2 3.4-.8-.2-1.3-.3-1.6-.5-.6-.5-1-1.1-1.8-2.2 1.3-.2 2.1-.4 3.6-.7ZM362 305.1v-2.8c1.2-.1 2.4-.1 3.5-.2.9 1.1.4 2.3-1.5 4.1-.6-.4-1.3-.8-2-1.1ZM365.699 291.3c.8-1.3 1.3-2 1.7-2.6 2.5 1 3 2.2 2.4 4.1h-2c-.7-.4-1.3-.9-2.1-1.5ZM358.2 271.4c1.7.8 2.9 1.4 4.4 2.2-.9 1.1-1.5 1.8-2.1 2.6-2.2-.4-2.7-1.9-2.3-4.8ZM378.898 261.1c.6-1 1.1-1.8 1.4-2.3 2.6.8 2.8 2.2 2.6 3.9-1.8.9-3 .2-4-1.6ZM379.599 317.1c-1 .9-1.6 1.5-2.4 2.2-.8-.6-1.5-1.2-2.5-2 .7-.9 1.3-1.7 2.2-2.9.9 1 1.6 1.7 2.7 2.7ZM365.999 277.3v2.6c-1.2.1-2.4.1-3.8.2v-2.8h3.8ZM370.898 274.2c-1.1.9-1.8 1.5-2.8 2.3-.9-.8-1.6-1.4-2.5-2.3.7-.8 1.3-1.6 2.1-2.5.9.8 1.8 1.4 3.2 2.5ZM375.199 298.2c2.2-.5 3.6.1 4 2.6h-4v-2.6ZM369.998 298.2v2.6h-4.1c.4-2.5 1.8-2.9 4.1-2.6ZM366.099 268.4c-.5 2.3-1.8 2.9-3.6 2.7-.6-3-.6-3 3.6-2.7ZM379.601 307c-.7 1.3-.8 1.8-1.1 2.1-.4.5-.9.8-1.6 1.5-.9-1.1-1.5-1.9-2.6-3.2 2-.2 3.2-.3 5.3-.4ZM364.7 292.2v5.3c-1.2-.8-2-1.4-3.2-2.3 1.1-.9 1.9-1.7 3.2-3ZM379.601 290c-.6 1.3-.8 1.7-1.1 2.1-.4.5-.8.8-1.6 1.6-.9-1.1-1.5-1.8-2.6-3.2 2-.3 3.2-.4 5.3-.5ZM366.898 287.8h-5.3c.8-1.2 1.4-2 2.3-3.2.9 1 1.7 1.8 3 3.2ZM378.098 277.2h4.7c.6 1.8-.7 2.2-2 3.2-.7-.8-1.4-1.6-2.7-3.2ZM374.801 274.2c.6-.8 1.3-1.6 2.2-2.7 1 1.1 1.6 1.9 2.8 3.3-2 .2-3.3.3-4.5.3-.2-.3-.4-.6-.5-.9ZM371.199 268.2h2.7v2.7c-.7.1-1.6.1-2.7.2v-2.9ZM371.098 262.9v-2.7h2.7c.1.7.1 1.6.2 2.7h-2.9ZM358.199 283.9v-2.8h2.6v2.8h-2.6ZM367.199 281.2h2.7v2.7c-.7.1-1.6.1-2.7.2v-2.9ZM377.698 284.1h-2.5c-.1-.9-.2-1.7-.3-2.8h2.8v2.8ZM371.098 287.9v-2.7h2.7c.1.7.1 1.6.2 2.7h-2.9ZM373.9 311.2v2.7h-2.7c-.1-.7-.1-1.6-.2-2.7h2.9ZM358.098 266.9v-2.7h2.7c.1.7.1 1.6.2 2.7h-2.9ZM371.098 296.9v-2.7h2.7c.1.7.1 1.6.2 2.7h-2.9ZM360.998 301.1h-2.8c-.1-.9-.2-1.8-.3-3h2.1c1.9.4.6 2 1 3ZM380.199 296.9v-2.6h3.6c-1.2 1.3-2 2.2-2.7 3-.3-.1-.6-.3-.9-.4ZM382.801 288.1h-2.5V285c2 .3 3 1.1 2.5 3.1ZM380.199 314.5v-3.3c.7-.1 1.6-.1 2.8-.2.2 2-.9 2.6-2.8 3.5ZM378.099 263.9c-.1 1.5-.2 2.3-.3 4-1.4-1.3-2.2-2.1-3.6-3.4 1.6-.2 2.4-.4 3.9-.6ZM383.698 268.5c-.9 1.1-1.3 1.8-1.9 2.3-.3.3-.8.3-1.3.5-.5-3.2-.5-3.2 3.2-2.8ZM371.098 305.4v-2.1h2.8c.3 2.9-1.7 1.2-2.8 2.1ZM451 227.1v1.9c-2.9-.6-2.8-.6-2.8-3.9h2.8v2ZM455 233.1c-2.2-.2-2.8-.8-3-3h4.2c-.5 1.2-.8 2.1-1.2 3ZM470 258.1l-1-1c.5-.7 1.1-1.5 1.6-2.2 1.4.7 2.6 1.2 2.2 3.2H470ZM477 262.1c-.8.4-1.5.8-2.7 1.4-.1-1.4-.2-2.4-.3-3.4.1-1.2.9-1.2 1.6-.8 1 .6 1.7 1.5 1.4 2.8ZM454.999 240.1c-.3 2-1.8.3-2.8 1.7v-3.7h2.8v2ZM446.999 213.1v1.8c-.8.1-1.7.2-2.8.3v-3.1h2.8v1ZM449.998 220.1c-1.6-.4-2.2-1.4-2-3h2.6c.3 1.1 1.3 2.2-.6 3ZM461.997 250.1c-1.9-.5-.6-2-1-3h2.8c.5 1.9-.5 2.5-1.8 3ZM480.899 255v3c-2 .4-2.5-.9-3.2-2.6 1.3-.2 2.3-.3 3.2-.4ZM485 262.1c-.2 1.4-1 1.2-1.9.6-.4-.2-.7-.4-1.1-.6v-1.8c.9-.1 1.7-.1 3-.3v2.1Z"
	/>
	<path fill="#FDFDFD" d="M455 239.1v-1c.3.2.6.4.8.7-.2 0-.5.2-.8.3Z" />
	<path
		fill="#1A1A10"
		d="M143.199 277.7c-.8 2.2-2.1 2.7-3.9 2.2-.9-1.8-.2-2.9 1.7-4 .7.6 1.5 1.2 2.2 1.8ZM135.301 238.1h2.5c.1.9.2 1.7.3 2.8h-2.8v-2.8ZM73.7984 126.1h-1.8c-.9-.7-1.5-1.1-2.1-1.6.5-2.1 1.7-2.7 3.8-2.3.1 1.2.1 2.5.1 3.9ZM68.9977 139.1c-1.1-.4-2.1-.8-3.4-1.3.6-1.2 1-1.9 1.4-2.7 1.1.4 2.1.8 3.4 1.3-.6 1.1-1 1.9-1.4 2.7ZM66.9984 113.1c-.4-.7-.7-1.3-1.1-2 .4-.7.7-1.3 1.1-2 1.5-.3 2.4.5 3 1.8-.4 1.5-1.3 2.4-3 2.2ZM82.8977 114.2v2.7h-3.8v-2.7h3.8ZM64.9979 124.1v2c-2.7-.1-3.1-1.6-3-3.6 1.1-.3 2.3-1.3 3 .6v1ZM77.7973 109v3.9h-2.4c-.1-.1-.4-.3-.4-.6-.2-1.8.5-3.1 2.8-3.3ZM71 143.1c-1.5-.1-.8-1.2-1-2 1.2-.5 2.3-1.8 4-.5-.1 1.8-1.1 2.5-3 2.5ZM66.9978 130.1c-.2-.4-.4-.8-.6-1.1-.6-.9-.7-1.6.6-1.9h3.1c-.2 2.2-1.2 3-3.1 3ZM66 121.1v-3h2.8c.1.9.2 1.8.3 3H66ZM73.9992 114.3v2.5c-.9.1-1.7.2-2.8.3v-2.8h2.8ZM71.1992 131.2h2.7v2.7c-.7.1-1.6.1-2.7.2v-2.9ZM77.8983 134.8v3.1h-2.9c-.2-2 1-2.6 2.9-3.1ZM77.9984 118.3v2.5h-3.1c.4-2 1.1-3 3.1-2.5ZM77.8 130c-2.1.3-2.5-1-3.3-2.7 1.3-.1 2.2-.1 3.3-.2v2.9ZM64.9 131.2v2.7h-2.7c-.1-.7-.1-1.6-.2-2.7h2.9ZM65.0992 113.9c-.1 1.5-.2 2.3-.3 4-1.4-1.3-2.2-2.1-3.6-3.4 1.6-.2 2.4-.4 3.9-.6Z"
	/>
	<path
		fill="#FCFC3A"
		d="M130 161.1c-1.4-.1-3 .5-4-2.4v-2.6h4v5ZM126 156.1h-3.5c-.1-.1-.3-.2-.3-.3-.1-1.1-.1-2.2-.2-3.7h4.1c-.1 1.3-.1 2.6-.1 4ZM113 156.1v-3.8c3.7.2 3.7.2 4 3.8h-4Z"
	/>
	<path
		fill="#FDFDFD"
		d="M101.597 147.7c2.3 1.2 3.1 2.4 2 4.4-2.5-1.3-2.5-1.3-2-4.4Z"
	/>
	<path
		fill="#FCFC3A"
		d="M156 147.1v5h-4v-4l1.8-.3c.8-.3 1.5-.5 2.2-.7ZM152 148.1c-1.5-1.3-3.3-1-5-1v-2.8c1.2-.1 2.4-.1 3.3-.2 2 1 1.7 2.5 1.7 4ZM134 152.1c.2-3.2.2-3.2 3-4 .7-.2 1.3-.6 2-1-.4 1.3-.7 2.5-1 3.5-1.5.5-2.8 1-4 1.5ZM155.997 143.1h-3.5c-1.2-1.8-.3-3 1.2-4 2.5.3 2.4 2.1 2.3 4ZM156 135.1h4v4h-2.7c-.4-1.3-.8-2.7-1.3-4Z"
	/>
	<path
		fill="#1A1A10"
		d="M182 119.1v2c-1.7-.3-3.3-.7-5-1 .6-2.2 2.3-2.1 4-2 .3.3.7.6 1 1ZM169.998 127.1c1 .4 2.1.8 3 1.1-.5.9-.8 1.4-1 1.9-1.4-.5-2.8-.9-4-1.3-.1-2.2 1.2-1.6 2-1.7Z"
	/>
	<path
		fill="#FCFC3A"
		d="M175.498 132c-2.3-1.6-1.3-3.7-1.6-5.8 1-.1 1.8-.1 3.2-.2-.4 2.2.9 4.4-1.6 6ZM150.898 157c-.8-.4-1.8-.9-2.8-1.3v-3.4h2.8v4.7Z"
	/>
	<path
		fill="#F952E5"
		d="M130 161.1v-5h5v2.5l-2.5 2.5H130ZM113 156.1h4v4.3c-1.6-.7-2.9-1.2-4-1.7v-2.6ZM126 156.1v-4c3.8.1 3.9.2 4 4h-4Z"
	/>
	<path
		fill="#1A1A10"
		d="M186 115.1c-.3.7-.7 1.3-1 2h-2.8c-.1-.9-.1-1.8-.2-3h4.1c-.1.3-.1.6-.1 1Z"
	/>
</svg>
